Radio-Canada-BoldItalic-subset-sam.ufo
<glyph name="quotedbl" format="1">
  <advance width="492"/>
  <unicode hex="0022"/>
  <outline>
    <contour>
      <point x="203.04072440241592" y="720.0" type="line"/>
      <point x="164.7087106262583" y="375.0" type="line"/>
      <point x="266.70871062625827" y="375.0" type="line"/>
      <point x="375.0407244024159" y="720.0" type="line"/>
    </contour>
    <contour>
      <point x="423.0407244024159" y="720.0" type="line"/>
      <point x="384.70871062625827" y="375.0" type="line"/>
      <point x="486.70871062625827" y="375.0" type="line"/>
      <point x="595.0407244024159" y="720.0" type="line"/>
    </contour>
  </outline>
</glyph>
<glyph name="numbersign" format="1">
  <advance width="807"/>
  <unicode hex="0023"/>
  <outline>
    <contour>
      <point x="86.88348425050332" y="150.0" type="line"/>
      <point x="720.8834842505033" y="150.0" type="line"/>
      <point x="749.3660635142862" y="284.0" type="line"/>
      <point x="115.36606351428628" y="284.0" type="line"/>
    </contour>
    <contour>
      <point x="111.0" y="0.0" type="line"/>
      <point x="253.0" y="0.0" type="line"/>
      <point x="567.6640275523152" y="690.0" type="line"/>
      <point x="425.66402755231525" y="690.0" type="line"/>
    </contour>
    <contour>
      <point x="204.29796403802897" y="406.0" type="line"/>
      <point x="838.297964038029" y="406.0" type="line"/>
      <point x="866.7805433018119" y="540.0" type="line"/>
      <point x="232.78054330181195" y="540.0" type="line"/>
    </contour>
    <contour>
      <point x="386.0" y="0.0" type="line"/>
      <point x="528.0" y="0.0" type="line"/>
      <point x="842.6640275523152" y="690.0" type="line"/>
      <point x="700.6640275523152" y="690.0" type="line"/>
    </contour>
  </outline>
</glyph>
<glyph name="percent" format="1">
  <advance width="992"/>
  <unicode hex="0025"/>
  <outline>
    <contour>
      <point x="180.10429894507146" y="518.0" type="curve" smooth="yes"/>
      <point x="156.29796403802897" y="406.0"/>
      <point x="218.9938915977874" y="334.0"/>
      <point x="319.9938915977874" y="334.0" type="curve" smooth="yes"/>
      <point x="420.9938915977874" y="334.0"/>
      <point x="514.297964038029" y="406.0"/>
      <point x="538.1042989450715" y="518.0" type="curve" smooth="yes"/>
      <point x="561.910633852114" y="630.0"/>
      <point x="499.2147062923556" y="702.0"/>
      <point x="398.2147062923556" y="702.0" type="curve" smooth="yes"/>
      <point x="297.2147062923556" y="702.0"/>
      <point x="203.91063385211393" y="630.0"/>
    </contour>
    <contour>
      <point x="285.1042989450715" y="518.0" type="curve" smooth="yes"/>
      <point x="297.2200229602627" y="575.0"/>
      <point x="337.0218329337034" y="607.0"/>
      <point x="378.0218329337034" y="607.0" type="curve" smooth="yes"/>
      <point x="419.0218329337034" y="607.0"/>
      <point x="445.2200229602627" y="575.0"/>
      <point x="433.1042989450715" y="518.0" type="curve" smooth="yes"/>
      <point x="420.9885749298802" y="461.0"/>
      <point x="381.1867649564395" y="429.0"/>
      <point x="340.1867649564395" y="429.0" type="curve" smooth="yes"/>
      <point x="299.1867649564395" y="429.0"/>
      <point x="272.9885749298802" y="461.0"/>
    </contour>
    <contour>
      <point x="201.0" y="0.0" type="line"/>
      <point x="341.0" y="0.0" type="line"/>
      <point x="937.6640275523152" y="690.0" type="line"/>
      <point x="797.6640275523152" y="690.0" type="line"/>
    </contour>
    <contour>
      <point x="600.5597286072438" y="172.0" type="curve" smooth="yes"/>
      <point x="576.7533937002013" y="60.0"/>
      <point x="639.4493212599598" y="-12.0"/>
      <point x="740.4493212599598" y="-12.0" type="curve" smooth="yes"/>
      <point x="841.4493212599598" y="-12.0"/>
      <point x="934.7533937002013" y="60.0"/>
      <point x="958.5597286072438" y="172.0" type="curve" smooth="yes"/>
      <point x="982.3660635142862" y="284.0"/>
      <point x="919.6701359545278" y="356.0"/>
      <point x="818.6701359545278" y="356.0" type="curve" smooth="yes"/>
      <point x="717.6701359545278" y="356.0"/>
      <point x="624.3660635142862" y="284.0"/>
    </contour>
    <contour>
      <point x="705.5597286072438" y="172.0" type="curve" smooth="yes"/>
      <point x="717.675452622435" y="229.0"/>
      <point x="757.4772625958758" y="261.0"/>
      <point x="798.4772625958758" y="261.0" type="curve" smooth="yes"/>
      <point x="839.4772625958758" y="261.0"/>
      <point x="865.675452622435" y="229.0"/>
      <point x="853.5597286072438" y="172.0" type="curve" smooth="yes"/>
      <point x="841.4440045920526" y="115.0"/>
      <point x="801.6421946186118" y="83.0"/>
      <point x="760.6421946186118" y="83.0" type="curve" smooth="yes"/>
      <point x="719.6421946186118" y="83.0"/>
      <point x="693.4440045920526" y="115.0"/>
    </contour>
  </outline>
</glyph>
<glyph name="ampersand" format="1">
  <advance width="660"/>
  <unicode hex="0026"/>
  <outline>
    <contour>
      <point x="76.13461548390376" y="170.0" type="curve" smooth="yes"/>
      <point x="52.75339370020133" y="60.0"/>
      <point x="127.44932125995973" y="-12.0"/>
      <point x="247.44932125995973" y="-12.0" type="curve" smooth="yes"/>
      <point x="437.44932125995973" y="-12.0"/>
      <point x="579.7579186338031" y="140.0"/>
      <point x="683.7669685010067" y="300.0" type="curve"/>
      <point x="564.3947965845077" y="350.0" type="line"/>
      <point x="496.7624435674049" y="220.0"/>
      <point x="395.08167427706263" y="118.0"/>
      <point x="295.08167427706263" y="118.0" type="curve" smooth="yes"/>
      <point x="250.0816742770626" y="118.0"/>
      <point x="225.82070144215322" y="145.0"/>
      <point x="234.32296390895408" y="185.0" type="curve" smooth="yes"/>
      <point x="241.76244356740486" y="220.0"/>
      <point x="269.98936666418564" y="254.0"/>
      <point x="330.57862007595634" y="285.0" type="curve" smooth="yes"/>
      <point x="448.3320137761576" y="345.0" type="line" smooth="yes"/>
      <point x="556.0226246680088" y="400.0"/>
      <point x="608.65045275151" y="450.0"/>
      <point x="625.6549776851117" y="530.0" type="curve" smooth="yes"/>
      <point x="646.910633852114" y="630.0"/>
      <point x="584.2147062923556" y="702.0"/>
      <point x="464.2147062923556" y="702.0" type="curve" smooth="yes"/>
      <point x="344.2147062923556" y="702.0"/>
      <point x="243.91063385211393" y="630.0"/>
      <point x="221.5921948767616" y="525.0" type="curve" smooth="yes"/>
      <point x="205.65045275150996" y="450.0"/>
      <point x="235.02262466800886" y="400.0"/>
      <point x="272.2692309678075" y="340.0" type="curve" smooth="yes"/>
      <point x="480.0" y="0.0" type="line"/>
      <point x="670.0" y="0.0" type="line"/>
      <point x="417.1481902847091" y="410.0" type="line" smooth="yes"/>
      <point x="385.7760183682102" y="460.0"/>
      <point x="358.08993240996074" y="485.0"/>
      <point x="366.5921948767616" y="525.0" type="curve" smooth="yes"/>
      <point x="374.0316745352124" y="560.0"/>
      <point x="402.40837138531305" y="590.0"/>
      <point x="440.40837138531305" y="590.0" type="curve" smooth="yes"/>
      <point x="478.40837138531305" y="590.0"/>
      <point x="494.0316745352124" y="560.0"/>
      <point x="486.5921948767616" y="525.0" type="curve" smooth="yes"/>
      <point x="478.08993240996074" y="485.0"/>
      <point x="443.7760183682102" y="460.0"/>
      <point x="392.4621043264596" y="435.0" type="curve" smooth="yes"/>
      <point x="269.70871062625827" y="375.0" type="line" smooth="yes"/>
      <point x="158.0180997344071" y="320.0"/>
      <point x="94.20192322585564" y="255.0"/>
    </contour>
  </outline>
</glyph>
<glyph name="parenleft" format="1">
  <advance width="300"/>
  <unicode hex="0028"/>
  <outline>
    <contour>
      <point x="121.96515852756593" y="268.0" type="curve" smooth="yes"/>
      <point x="73.92737559014093" y="42.0"/>
      <point x="118.76855196961748" y="-114.0"/>
      <point x="223.58552021247434" y="-256.0" type="curve"/>
      <point x="308.5514704743457" y="-195.0" type="line"/>
      <point x="240.45916286146868" y="-59.0"/>
      <point x="222.64219461861182" y="83.0"/>
      <point x="261.9651585275659" y="268.0" type="curve" smooth="yes"/>
      <point x="301.28812243652004" y="453.0"/>
      <point x="379.25859763199315" y="594.0"/>
      <point x="505.16629001911616" y="730.0" type="curve"/>
      <point x="446.1322402809875" y="791.0" type="line"/>
      <point x="280.9492085238444" y="649.0"/>
      <point x="170.00294146499093" y="494.0"/>
    </contour>
  </outline>
</glyph>
<glyph name="asterisk" format="1">
  <advance width="619"/>
  <unicode hex="002A"/>
  <outline>
    <contour>
      <point x="158.08993240996074" y="485.0" type="line"/>
      <point x="323.65045275151" y="450.0" type="line"/>
      <point x="177.44321285774714" y="322.0" type="line"/>
      <point x="273.58846167746526" y="238.0" type="line"/>
      <point x="393.5347287363187" y="393.0" type="line"/>
      <point x="446.58846167746526" y="238.0" type="line"/>
      <point x="579.4432128577471" y="322.0" type="line"/>
      <point x="487.65045275151" y="450.0" type="line"/>
      <point x="667.0899324099607" y="485.0" type="line"/>
      <point x="652.7850682354137" y="620.0" type="line"/>
      <point x="476.0558826718321" y="546.0" type="line"/>
      <point x="533.0407244024159" y="720.0" type="line"/>
      <point x="392.0407244024159" y="720.0" type="line"/>
      <point x="376.0558826718321" y="546.0" type="line"/>
      <point x="230.78506823541372" y="620.0" type="line"/>
    </contour>
  </outline>
</glyph>
<glyph name="period" format="1">
  <advance width="278"/>
  <unicode hex="002E"/>
  <outline>
    <contour>
      <point x="62.00452493360177" y="80.0" type="curve" smooth="yes"/>
      <point x="50.95158372676062" y="28.0"/>
      <point x="81.44932125995973" y="-12.0"/>
      <point x="136.44932125995973" y="-12.0" type="curve" smooth="yes"/>
      <point x="191.44932125995973" y="-12.0"/>
      <point x="238.95158372676062" y="28.0"/>
      <point x="250.00452493360177" y="80.0" type="curve"/>
      <point x="261.27002270211295" y="133.0"/>
      <point x="230.5597286072438" y="172.0"/>
      <point x="175.5597286072438" y="172.0" type="curve" smooth="yes"/>
      <point x="120.55972860724381" y="172.0"/>
      <point x="73.27002270211294" y="133.0"/>
    </contour>
  </outline>
</glyph>
<glyph name="slash" format="1">
  <advance width="394"/>
  <unicode hex="002F"/>
  <outline>
    <contour>
      <point x="-6.376696850100664" y="-30.0" type="line"/>
      <point x="140.62330314989933" y="-30.0" type="line"/>
      <point x="547.0407244024159" y="720.0" type="line"/>
      <point x="400.0407244024159" y="720.0" type="line"/>
    </contour>
  </outline>
</glyph>
<glyph name="four" format="1">
  <advance width="660"/>
  <unicode hex="0034"/>
  <outline>
    <contour>
      <point x="110.97500012907489" y="221.0" type="line"/>
      <point x="167.65656115372258" y="116.0" type="line"/>
      <point x="594.6640275523152" y="690.0" type="line"/>
      <point x="464.66402755231525" y="690.0" type="line"/>
    </contour>
    <contour>
      <point x="88.65656115372256" y="116.0" type="line"/>
      <point x="636.6565611537226" y="116.0" type="line"/>
      <point x="666.4144797875257" y="256.0" type="line"/>
      <point x="164.41447978752566" y="256.0" type="line"/>
      <point x="110.97500012907489" y="221.0" type="line"/>
    </contour>
    <contour>
      <point x="361.0" y="0.0" type="line"/>
      <point x="521.0" y="0.0" type="line"/>
      <point x="667.6640275523152" y="690.0" type="line"/>
      <point x="507.66402755231525" y="690.0" type="line"/>
    </contour>
  </outline>
</glyph>
<glyph name="five" format="1">
  <advance width="660"/>
  <unicode hex="0035"/>
  <outline>
    <contour>
      <point x="85.85475118028185" y="84.0" type="line"/>
      <point x="139.8888009184105" y="23.0"/>
      <point x="214.44932125995973" y="-12.0"/>
      <point x="320.44932125995973" y="-12.0" type="curve"/>
      <point x="461.44932125995973" y="-12.0"/>
      <point x="601.0287330702215" y="66.0"/>
      <point x="632.6996607590547" y="215.0" type="curve"/>
      <point x="661.3947965845077" y="350.0"/>
      <point x="571.4621043264597" y="435.0"/>
      <point x="453.4621043264596" y="435.0" type="curve"/>
      <point x="372.4621043264596" y="435.0"/>
      <point x="292.89705905130864" y="390.0"/>
      <point x="251.54457033782765" y="346.0" type="curve"/>
      <point x="228.6898191575458" y="262.0" type="line"/>
      <point x="273.70418569265655" y="295.0"/>
      <point x="320.955316926057" y="315.0"/>
      <point x="370.955316926057" y="315.0" type="curve"/>
      <point x="453.955316926057" y="315.0"/>
      <point x="485.815384774246" y="272.0"/>
      <point x="474.7624435674049" y="220.0" type="curve"/>
      <point x="462.22160642887354" y="161.0"/>
      <point x="405.20723989376285" y="128.0"/>
      <point x="331.20723989376285" y="128.0" type="curve"/>
      <point x="269.20723989376285" y="128.0"/>
      <point x="224.7337104971834" y="154.0"/>
      <point x="193.08619921066438" y="198.0" type="curve"/>
    </contour>
    <contour>
      <point x="171.2548644326968" y="307.0" type="line"/>
      <point x="228.6898191575458" y="262.0" type="line"/>
      <point x="313.4190047211274" y="336.0" type="line"/>
      <point x="408.66402755231525" y="690.0" type="line"/>
      <point x="274.66402755231525" y="690.0" type="line"/>
    </contour>
    <contour>
      <point x="274.66402755231525" y="690.0" type="line"/>
      <point x="307.9061089185122" y="550.0" type="line"/>
      <point x="656.9061089185121" y="550.0" type="line"/>
      <point x="686.6640275523152" y="690.0" type="line"/>
    </contour>
  </outline>
</glyph>
<glyph name="colon" format="1">
  <advance width="278"/>
  <unicode hex="003A"/>
  <outline>
    <contour>
      <point x="62.00452493360177" y="80.0" type="curve" smooth="yes"/>
      <point x="50.95158372676062" y="28.0"/>
      <point x="81.44932125995973" y="-12.0"/>
      <point x="136.44932125995973" y="-12.0" type="curve" smooth="yes"/>
      <point x="191.44932125995973" y="-12.0"/>
      <point x="238.95158372676062" y="28.0"/>
      <point x="250.00452493360177" y="80.0" type="curve"/>
      <point x="261.27002270211295" y="133.0"/>
      <point x="230.5597286072438" y="172.0"/>
      <point x="175.5597286072438" y="172.0" type="curve" smooth="yes"/>
      <point x="120.55972860724381" y="172.0"/>
      <point x="73.27002270211294" y="133.0"/>
    </contour>
    <contour>
      <point x="139.58766994315985" y="445.0" type="curve" smooth="yes"/>
      <point x="128.5347287363187" y="393.0"/>
      <point x="159.0324662695178" y="353.0"/>
      <point x="214.0324662695178" y="353.0" type="curve" smooth="yes"/>
      <point x="269.03246626951784" y="353.0"/>
      <point x="316.5347287363187" y="393.0"/>
      <point x="327.5876699431599" y="445.0" type="curve"/>
      <point x="338.853167711671" y="498.0"/>
      <point x="308.14287361680186" y="537.0"/>
      <point x="253.14287361680186" y="537.0" type="curve" smooth="yes"/>
      <point x="198.14287361680186" y="537.0"/>
      <point x="150.853167711671" y="498.0"/>
    </contour>
  </outline>
</glyph>
<glyph name="A" format="1">
  <advance width="650.0"/>
  <unicode hex="0041"/>
  <outline>
    <contour>
      <point x="0" y="0" type="line"/>
      <point x="172" y="0" type="line"/>
      <point x="462" y="533" type="line"/>
      <point x="485" y="690" type="line"/>
      <point x="411" y="690" type="line"/>
    </contour>
    <contour>
      <point x="201" y="136" type="line"/>
      <point x="527" y="136" type="line"/>
      <point x="554" y="263" type="line"/>
      <point x="228" y="263" type="line"/>
    </contour>
    <contour>
      <point x="426" y="533" type="line"/>
      <point x="490" y="0" type="line"/>
      <point x="650" y="0" type="line"/>
      <point x="535" y="690" type="line"/>
      <point x="463" y="690" type="line"/>
    </contour>
    <contour>
      <point x="477.0" y="690.0" type="move" name="top"/>
    </contour>
    <contour>
      <point x="331.0" y="0.0" type="move" name="bottom"/>
    </contour>
  </outline>
</glyph>
<glyph name="B" format="1">
  <advance width="650.4740663289097"/>
  <unicode hex="0042"/>
  <outline>
    <contour>
      <point x="85" y="0" type="line"/>
      <point x="245" y="0" type="line"/>
      <point x="392" y="690" type="line"/>
      <point x="232" y="690" type="line"/>
    </contour>
    <contour>
      <point x="159" y="0" type="line"/>
      <point x="361" y="0" type="line" smooth="yes"/>
      <point x="525" y="0"/>
      <point x="643" y="94"/>
      <point x="643" y="221" type="curve"/>
      <point x="643" y="322"/>
      <point x="561" y="388"/>
      <point x="443" y="388" type="curve" smooth="yes"/>
      <point x="241" y="388" type="line"/>
      <point x="220" y="288" type="line"/>
      <point x="407" y="288" type="line" smooth="yes"/>
      <point x="453" y="288"/>
      <point x="482" y="269"/>
      <point x="482" y="226" type="curve"/>
      <point x="482" y="176"/>
      <point x="436" y="134"/>
      <point x="374" y="134" type="curve" smooth="yes"/>
      <point x="187" y="134" type="line"/>
    </contour>
    <contour>
      <point x="229" y="328" type="line"/>
      <point x="406" y="328" type="line" smooth="yes"/>
      <point x="554" y="328"/>
      <point x="679" y="413"/>
      <point x="679" y="530" type="curve"/>
      <point x="679" y="627"/>
      <point x="601" y="690"/>
      <point x="483" y="690" type="curve" smooth="yes"/>
      <point x="306" y="690" type="line"/>
      <point x="277" y="556" type="line"/>
      <point x="444" y="556" type="line" smooth="yes"/>
      <point x="488" y="556"/>
      <point x="515" y="537"/>
      <point x="515" y="499" type="curve"/>
      <point x="515" y="452"/>
      <point x="478" y="412"/>
      <point x="414" y="412" type="curve" smooth="yes"/>
      <point x="247" y="412" type="line"/>
    </contour>
  </outline>
</glyph>
<glyph name="D" format="1">
  <advance width="719.5279539766157"/>
  <unicode hex="0044"/>
  <outline>
    <contour>
      <point x="85" y="0" type="line"/>
      <point x="245" y="0" type="line"/>
      <point x="392" y="690" type="line"/>
      <point x="232" y="690" type="line"/>
    </contour>
    <contour>
      <point x="159" y="0" type="line"/>
      <point x="322" y="0" type="line" smooth="yes"/>
      <point x="566" y="0"/>
      <point x="755" y="188"/>
      <point x="756" y="429" type="curve" smooth="yes"/>
      <point x="757.0183823529412" y="591.0"/>
      <point x="643" y="690"/>
      <point x="479" y="690" type="curve" smooth="yes"/>
      <point x="306" y="690" type="line"/>
      <point x="276" y="550" type="line"/>
      <point x="443" y="550" type="line" smooth="yes"/>
      <point x="533" y="550"/>
      <point x="590" y="498"/>
      <point x="591" y="408" type="curve"/>
      <point x="589.9798387096774" y="260.0"/>
      <point x="469.6008064516129" y="140.0"/>
      <point x="338" y="140" type="curve" smooth="yes"/>
      <point x="189" y="140" type="line"/>
    </contour>
    <contour>
      <point x="468.66402755231525" y="690.0" type="move" name="top"/>
    </contour>
  </outline>
</glyph>
<glyph name="E" format="1">
  <advance width="635"/>
  <unicode hex="0045"/>
  <outline>
    <contour>
      <point x="85.0" y="0.0" type="line"/>
      <point x="245.0" y="0.0" type="line"/>
      <point x="391.66402755231525" y="690.0" type="line"/>
      <point x="231.66402755231528" y="690.0" type="line"/>
    </contour>
    <contour>
      <point x="159.0" y="0.0" type="line"/>
      <point x="575.0" y="0.0" type="line"/>
      <point x="604.7579186338031" y="140.0" type="line"/>
      <point x="188.7579186338031" y="140.0" type="line"/>
    </contour>
    <contour>
      <point x="218.94095039094623" y="282.0" type="line"/>
      <point x="582.9409503909462" y="282.0" type="line"/>
      <point x="610.9984165313891" y="414.0" type="line"/>
      <point x="246.99841653138915" y="414.0" type="line"/>
    </contour>
    <contour>
      <point x="275.9061089185122" y="550.0" type="line"/>
      <point x="686.9061089185121" y="550.0" type="line"/>
      <point x="716.6640275523152" y="690.0" type="line"/>
      <point x="305.66402755231525" y="690.0" type="line"/>
    </contour>
    <contour>
      <point x="469.66402755231525" y="690.0" type="move" name="top"/>
    </contour>
    <contour>
      <point x="323.0" y="0.0" type="move" name="bottom"/>
    </contour>
  </outline>
</glyph>
<glyph name="G" format="1">
  <advance width="703"/>
  <unicode hex="0047"/>
  <outline>
    <contour>
      <point x="109" y="251" type="curve" smooth="yes"/>
      <point x="109.0" y="85.0"/>
      <point x="217" y="-12"/>
      <point x="383" y="-12" type="curve" smooth="yes"/>
      <point x="481" y="-12"/>
      <point x="590" y="26"/>
      <point x="660" y="81" type="curve"/>
      <point x="565" y="171" type="line"/>
      <point x="527" y="147"/>
      <point x="464" y="128"/>
      <point x="414" y="128" type="curve"/>
      <point x="325" y="128"/>
      <point x="274.0" y="173.13432835820896"/>
      <point x="274" y="272" type="curve" smooth="yes"/>
      <point x="274.0" y="433.0"/>
      <point x="376.283105022831" y="554.0"/>
      <point x="498" y="554" type="curve" smooth="yes"/>
      <point x="550.0" y="554.0"/>
      <point x="590.0" y="537.0"/>
      <point x="628" y="502" type="curve"/>
      <point x="742" y="622" type="line"/>
      <point x="672.0" y="677.0"/>
      <point x="603" y="702"/>
      <point x="529" y="702" type="curve" smooth="yes"/>
      <point x="296" y="702"/>
      <point x="109.0" y="497.0"/>
    </contour>
    <contour>
      <point x="412" y="249" type="line"/>
      <point x="628" y="249" type="line"/>
      <point x="656" y="382" type="line"/>
      <point x="440" y="382" type="line"/>
    </contour>
    <contour>
      <point x="504" y="70" type="line"/>
      <point x="660" y="81" type="line"/>
      <point x="724" y="382" type="line"/>
      <point x="570" y="382" type="line"/>
    </contour>
    <contour>
      <point x="523.6640275523152" y="690.0" type="move" name="top"/>
    </contour>
    <contour>
      <point x="377.0" y="0.0" type="move" name="bottom"/>
    </contour>
  </outline>
</glyph>
<glyph name="L" format="1">
  <advance width="590"/>
  <unicode hex="004C"/>
  <outline>
    <contour>
      <point x="85.0" y="0.0" type="line"/>
      <point x="245.0" y="0.0" type="line"/>
      <point x="391.66402755231525" y="690.0" type="line"/>
      <point x="231.66402755231528" y="690.0" type="line"/>
    </contour>
    <contour>
      <point x="159.0" y="0.0" type="line"/>
      <point x="555.0" y="0.0" type="line"/>
      <point x="584.7579186338031" y="140.0" type="line"/>
      <point x="188.7579186338031" y="140.0" type="line"/>
    </contour>
    <contour>
      <point x="311.66402755231525" y="690.0" type="move" name="top"/>
    </contour>
  </outline>
</glyph>
<glyph name="M" format="1">
  <advance width="854"/>
  <unicode hex="004D"/>
  <outline>
    <contour>
      <point x="85.0" y="0.0" type="line"/>
      <point x="238.0" y="0.0" type="line"/>
      <point x="384.66402755231525" y="690.0" type="line"/>
      <point x="231.66402755231528" y="690.0" type="line"/>
    </contour>
    <contour>
      <point x="310" y="690" type="line"/>
      <point x="403" y="141" type="line"/>
      <point x="464" y="141" type="line"/>
      <point x="504" y="332" type="line"/>
      <point x="448" y="690" type="line"/>
    </contour>
    <contour>
      <point x="448" y="141" type="line"/>
      <point x="513" y="141" type="line"/>
      <point x="841" y="690" type="line"/>
      <point x="687" y="690" type="line"/>
      <point x="488" y="332" type="line"/>
    </contour>
    <contour>
      <point x="616.0" y="0.0" type="line"/>
      <point x="769.0" y="0.0" type="line"/>
      <point x="915.6640275523152" y="690.0" type="line"/>
      <point x="762.6640275523152" y="690.0" type="line"/>
    </contour>
  </outline>
</glyph>
<glyph name="O" format="1">
  <advance width="740.1023019589554"/>
  <unicode hex="004F"/>
  <outline>
    <contour>
      <point x="109" y="251" type="curve" smooth="yes"/>
      <point x="109" y="85"/>
      <point x="215" y="-12"/>
      <point x="368" y="-12" type="curve"/>
      <point x="590" y="-12"/>
      <point x="777" y="193"/>
      <point x="778" y="439" type="curve" smooth="yes"/>
      <point x="777" y="605"/>
      <point x="671" y="702"/>
      <point x="519" y="702" type="curve"/>
      <point x="296" y="702"/>
      <point x="109" y="497"/>
    </contour>
    <contour>
      <point x="274" y="272" type="curve" smooth="yes"/>
      <point x="274" y="436"/>
      <point x="376" y="559"/>
      <point x="488" y="559" type="curve"/>
      <point x="563" y="559"/>
      <point x="612" y="513"/>
      <point x="613" y="418" type="curve" smooth="yes"/>
      <point x="612" y="254"/>
      <point x="510" y="131"/>
      <point x="399" y="131" type="curve"/>
      <point x="323" y="131"/>
      <point x="274" y="177"/>
    </contour>
    <contour>
      <point x="517.0" y="690.0" type="move" name="top"/>
    </contour>
    <contour>
      <point x="370.0" y="0.0" type="move" name="bottom"/>
    </contour>
  </outline>
</glyph>
<glyph name="Q" format="1">
  <advance width="740.1023019589554"/>
  <unicode hex="0051"/>
  <outline>
    <contour>
      <point x="408" y="9" type="line"/>
      <point x="426" y="-115"/>
      <point x="498" y="-172"/>
      <point x="654" y="-172" type="curve"/>
      <point x="687" y="-21" type="line"/>
      <point x="594.9007092198581" y="-21.0"/>
      <point x="552.063829787234" y="-4.0"/>
      <point x="536" y="46" type="curve"/>
    </contour>
    <component base="O"/>
  </outline>
</glyph>
<glyph name="U" format="1">
  <advance width="724"/>
  <unicode hex="0055"/>
  <outline>
    <contour>
      <point x="131" y="227" type="curve" smooth="yes"/>
      <point x="131" y="89"/>
      <point x="226" y="-12"/>
      <point x="375" y="-12" type="curve"/>
      <point x="530" y="-12"/>
      <point x="664" y="72"/>
      <point x="705" y="265" type="curve" smooth="yes"/>
      <point x="796" y="690" type="line"/>
      <point x="640" y="690" type="line"/>
      <point x="556" y="295" type="line" smooth="yes"/>
      <point x="531" y="181"/>
      <point x="466" y="131"/>
      <point x="398" y="131" type="curve"/>
      <point x="333" y="131"/>
      <point x="291" y="164"/>
      <point x="291" y="238" type="curve" smooth="yes"/>
      <point x="291" y="255"/>
      <point x="293" y="274"/>
      <point x="298" y="295" type="curve" smooth="yes"/>
      <point x="382" y="690" type="line"/>
      <point x="222" y="690" type="line"/>
      <point x="140" y="304" type="line" smooth="yes"/>
      <point x="133" y="271"/>
      <point x="131" y="249"/>
    </contour>
    <contour>
      <point x="511.0" y="690.0" type="move" name="top"/>
    </contour>
    <contour>
      <point x="362.0" y="0.0" type="move" name="bottom"/>
    </contour>
  </outline>
</glyph>
<glyph name="V" format="1">
  <advance width="643"/>
  <unicode hex="0056"/>
  <outline>
    <contour>
      <point x="147" y="690" type="line"/>
      <point x="258" y="0" type="line"/>
      <point x="330" y="0" type="line"/>
      <point x="367" y="157" type="line"/>
      <point x="307" y="690" type="line"/>
    </contour>
    <contour>
      <point x="308" y="0" type="line"/>
      <point x="382" y="0" type="line"/>
      <point x="789" y="690" type="line"/>
      <point x="619" y="690" type="line"/>
      <point x="331" y="157" type="line"/>
    </contour>
  </outline>
</glyph>
<glyph name="W" format="1">
  <advance width="952.3359724476848"/>
  <unicode hex="0057"/>
  <outline>
    <contour>
      <point x="147" y="690" type="line"/>
      <point x="215" y="0" type="line"/>
      <point x="291" y="0" type="line"/>
      <point x="331" y="161" type="line"/>
      <point x="308" y="690" type="line"/>
    </contour>
    <contour>
      <point x="269" y="0" type="line"/>
      <point x="343" y="0" type="line"/>
      <point x="626" y="543" type="line"/>
      <point x="656" y="690" type="line"/>
      <point x="554" y="690" type="line"/>
      <point x="297" y="161" type="line"/>
    </contour>
    <contour>
      <point x="562" y="543" type="line"/>
      <point x="609" y="0" type="line"/>
      <point x="685" y="0" type="line"/>
      <point x="725" y="161" type="line"/>
      <point x="689" y="690" type="line"/>
      <point x="586" y="690" type="line"/>
    </contour>
    <contour>
      <point x="663" y="0" type="line"/>
      <point x="737" y="0" type="line"/>
      <point x="1099" y="690" type="line"/>
      <point x="932" y="690" type="line"/>
      <point x="691" y="161" type="line"/>
    </contour>
    <contour>
      <point x="621.0" y="690.0" type="move" name="top"/>
    </contour>
  </outline>
</glyph>
<glyph name="Y" format="1">
  <advance width="656"/>
  <unicode hex="0059"/>
  <outline>
    <contour>
      <point x="146.66402755231528" y="690.0" type="line"/>
      <point x="316.26470603420574" y="260.0" type="line"/>
      <point x="398.26470603420574" y="260.0" type="line"/>
      <point x="423" y="397" type="line"/>
      <point x="320" y="690" type="line"/>
    </contour>
    <contour>
      <point x="248.0" y="0.0" type="line"/>
      <point x="408.0" y="0.0" type="line"/>
      <point x="469.64140288430644" y="290.0" type="line"/>
      <point x="309.64140288430644" y="290.0" type="line"/>
    </contour>
    <contour>
      <point x="376.26470603420574" y="260.0" type="line"/>
      <point x="450.26470603420574" y="260.0" type="line"/>
      <point x="802.6640275523152" y="690.0" type="line"/>
      <point x="612" y="690" type="line"/>
      <point x="389" y="397" type="line"/>
    </contour>
    <contour>
      <point x="475.66402755231525" y="690.0" type="move" name="top"/>
    </contour>
  </outline>
</glyph>
<glyph name="bracketleft" format="1">
  <advance width="320"/>
  <unicode hex="005B"/>
  <outline>
    <contour>
      <point x="22.29581430734347" y="-295.0" type="line"/>
      <point x="162.29581430734348" y="-295.0" type="line"/>
      <point x="401.42194618611836" y="830.0" type="line"/>
      <point x="261.42194618611836" y="830.0" type="line"/>
    </contour>
    <contour>
      <point x="22.29581430734347" y="-295.0" type="line"/>
      <point x="307.29581430734345" y="-295.0" type="line"/>
      <point x="332.80260170774613" y="-175.0" type="line"/>
      <point x="47.80260170774613" y="-175.0" type="line"/>
    </contour>
    <contour>
      <point x="235.9151587857157" y="710.0" type="line"/>
      <point x="520.9151587857157" y="710.0" type="line"/>
      <point x="546.4219461861184" y="830.0" type="line"/>
      <point x="261.42194618611836" y="830.0" type="line"/>
    </contour>
  </outline>
</glyph>
<glyph name="b" format="1">
  <advance width="612.5519129521685"/>
  <unicode hex="0062"/>
  <outline>
    <contour>
      <point x="75" y="0" type="line"/>
      <point x="212" y="0" type="line"/>
      <point x="234" y="45" type="line"/>
      <point x="274" y="231" type="line" smooth="yes"/>
      <point x="298" y="341"/>
      <point x="367" y="405"/>
      <point x="426" y="405" type="curve"/>
      <point x="462" y="405"/>
      <point x="483" y="379"/>
      <point x="483" y="318" type="curve"/>
      <point x="483" y="223"/>
      <point x="428" y="111"/>
      <point x="337" y="111" type="curve"/>
      <point x="296" y="111"/>
      <point x="260" y="132"/>
      <point x="231" y="169" type="curve"/>
      <point x="210" y="44" type="line"/>
      <point x="246" y="9"/>
      <point x="298" y="-12"/>
      <point x="353" y="-12" type="curve"/>
      <point x="505" y="-12"/>
      <point x="637" y="154"/>
      <point x="637" y="336" type="curve"/>
      <point x="637" y="455"/>
      <point x="573" y="537"/>
      <point x="475" y="537" type="curve"/>
      <point x="400" y="537"/>
      <point x="335" y="494"/>
      <point x="294" y="424" type="curve"/>
      <point x="313" y="414" type="line"/>
      <point x="381" y="735" type="line"/>
      <point x="227" y="715" type="line"/>
    </contour>
  </outline>
</glyph>
<glyph name="d" format="1">
  <advance width="612"/>
  <unicode hex="0064"/>
  <outline>
    <contour>
      <point x="87" y="189" type="curve" smooth="yes"/>
      <point x="87" y="70"/>
      <point x="151" y="-12"/>
      <point x="249" y="-12" type="curve"/>
      <point x="324" y="-12"/>
      <point x="391" y="31"/>
      <point x="432" y="101" type="curve"/>
      <point x="413" y="111" type="line"/>
      <point x="413" y="0" type="line"/>
      <point x="557" y="0" type="line"/>
      <point x="557" y="49" type="line" smooth="yes"/>
      <point x="557" y="78"/>
      <point x="558" y="97"/>
      <point x="564" y="125" type="curve" smooth="yes"/>
      <point x="693" y="735" type="line"/>
      <point x="540" y="715" type="line"/>
      <point x="450" y="294" type="line" smooth="yes"/>
      <point x="426" y="184"/>
      <point x="357" y="120"/>
      <point x="298" y="120" type="curve"/>
      <point x="262" y="120"/>
      <point x="241" y="146"/>
      <point x="241" y="207" type="curve" smooth="yes"/>
      <point x="241" y="302"/>
      <point x="296" y="417"/>
      <point x="387" y="417" type="curve"/>
      <point x="428" y="417"/>
      <point x="464" y="398"/>
      <point x="493" y="356" type="curve"/>
      <point x="522" y="491" type="line"/>
      <point x="482" y="521"/>
      <point x="433" y="537"/>
      <point x="383" y="537" type="curve"/>
      <point x="211" y="537"/>
      <point x="87" y="371"/>
    </contour>
  </outline>
</glyph>
<glyph name="f" format="1">
  <advance width="391"/>
  <unicode hex="0066"/>
  <outline>
    <contour>
      <point x="105.0" y="0.0" type="line"/>
      <point x="255.0" y="0.0" type="line"/>
      <point x="366.5921948767616" y="525.0" type="line" smooth="yes"/>
      <point x="378.4953623302829" y="581.0"/>
      <point x="406" y="607"/>
      <point x="447" y="607" type="curve"/>
      <point x="469" y="607"/>
      <point x="493" y="604"/>
      <point x="513" y="595" type="curve"/>
      <point x="557" y="711" type="line"/>
      <point x="526" y="723"/>
      <point x="486" y="732"/>
      <point x="444" y="732" type="curve"/>
      <point x="323" y="732"/>
      <point x="247" y="668"/>
      <point x="219" y="538" type="curve" smooth="yes"/>
    </contour>
    <contour>
      <point x="102" y="410" type="line"/>
      <point x="478" y="410" type="line"/>
      <point x="503" y="525" type="line"/>
      <point x="127" y="525" type="line"/>
    </contour>
  </outline>
</glyph>
<glyph name="h" format="1">
  <advance width="634.5005255096105"/>
  <unicode hex="0068"/>
  <outline>
    <contour>
      <point x="75" y="0" type="line"/>
      <point x="225" y="0" type="line"/>
      <point x="274" y="231" type="line" smooth="yes"/>
      <point x="297" y="341"/>
      <point x="371" y="405"/>
      <point x="426" y="405" type="curve"/>
      <point x="463" y="405"/>
      <point x="485" y="387"/>
      <point x="485" y="347" type="curve" smooth="yes"/>
      <point x="485" y="337"/>
      <point x="483" y="327"/>
      <point x="481" y="315" type="curve" smooth="yes"/>
      <point x="414" y="0" type="line"/>
      <point x="564" y="0" type="line"/>
      <point x="631" y="313" type="line" smooth="yes"/>
      <point x="636" y="335"/>
      <point x="638" y="355"/>
      <point x="638" y="374" type="curve" smooth="yes"/>
      <point x="638" y="477"/>
      <point x="574" y="537"/>
      <point x="485" y="537" type="curve"/>
      <point x="400" y="537"/>
      <point x="335" y="494"/>
      <point x="294" y="424" type="curve"/>
      <point x="313" y="414" type="line"/>
      <point x="381" y="735" type="line"/>
      <point x="227" y="715" type="line"/>
    </contour>
    <contour>
      <point x="303.0" y="720.0" type="move" name="top"/>
    </contour>
    <contour>
      <point x="437.0" y="525.0" type="move" name="top"/>
    </contour>
  </outline>
</glyph>
<glyph name="i" format="1">
  <advance width="300"/>
  <unicode hex="0069"/>
  <outline>
    <contour>
      <point x="75" y="0" type="line"/>
      <point x="225" y="0" type="line"/>
      <point x="337" y="525" type="line"/>
      <point x="187" y="525" type="line"/>
    </contour>
    <contour>
      <point x="202" y="660" type="curve"/>
      <point x="202" y="618"/>
      <point x="232" y="585"/>
      <point x="279" y="585" type="curve"/>
      <point x="339" y="585"/>
      <point x="386" y="634"/>
      <point x="386" y="692" type="curve"/>
      <point x="386" y="734"/>
      <point x="356" y="767"/>
      <point x="309" y="767" type="curve"/>
      <point x="249" y="767"/>
      <point x="202" y="718"/>
    </contour>
    <contour>
      <point x="150.0" y="0.0" type="move" name="bottom"/>
    </contour>
  </outline>
</glyph>
<glyph name="j" format="1">
  <advance width="300"/>
  <unicode hex="006A"/>
  <outline>
    <contour>
      <point x="-94" y="-179" type="line"/>
      <point x="-69" y="-189"/>
      <point x="-37" y="-197"/>
      <point x="3" y="-197" type="curve"/>
      <point x="119" y="-197"/>
      <point x="197" y="-134"/>
      <point x="225" y="-2" type="curve" smooth="yes"/>
      <point x="337" y="525" type="line"/>
      <point x="187" y="525" type="line"/>
      <point x="75" y="2" type="line" smooth="yes"/>
      <point x="63" y="-55"/>
      <point x="32" y="-75"/>
      <point x="-8" y="-75" type="curve"/>
      <point x="-26" y="-75"/>
      <point x="-43" y="-71"/>
      <point x="-59" y="-63" type="curve"/>
    </contour>
    <contour>
      <point x="202" y="660" type="curve"/>
      <point x="202" y="618"/>
      <point x="232" y="585"/>
      <point x="279" y="585" type="curve"/>
      <point x="339" y="585"/>
      <point x="386" y="634"/>
      <point x="386" y="692" type="curve"/>
      <point x="386" y="734"/>
      <point x="356" y="767"/>
      <point x="309" y="767" type="curve"/>
      <point x="249" y="767"/>
      <point x="202" y="718"/>
    </contour>
  </outline>
</glyph>
<glyph name="k" format="1">
  <advance width="565.0"/>
  <unicode hex="006B"/>
  <outline>
    <contour>
      <point x="75.0" y="0.0" type="line"/>
      <point x="225.0" y="0.0" type="line"/>
      <point x="381.22907282746627" y="735.0" type="line"/>
      <point x="226.9779415940658" y="715.0" type="line"/>
    </contour>
    <contour>
      <point x="188" y="93" type="line"/>
      <point x="669" y="525" type="line"/>
      <point x="471" y="525" type="line"/>
      <point x="227" y="278" type="line"/>
    </contour>
    <contour>
      <point x="297" y="261" type="line"/>
      <point x="405" y="0" type="line"/>
      <point x="565" y="0" type="line"/>
      <point x="408" y="353" type="line"/>
    </contour>
  </outline>
</glyph>
<glyph name="l" format="1">
  <advance width="300"/>
  <unicode hex="006C"/>
  <outline>
    <contour>
      <point x="75" y="0" type="line"/>
      <point x="225" y="0" type="line"/>
      <point x="381" y="735" type="line"/>
      <point x="227" y="715" type="line"/>
    </contour>
    <contour>
      <point x="303.0" y="720.0" type="move" name="top"/>
    </contour>
  </outline>
</glyph>
<glyph name="n" format="1">
  <advance width="634"/>
  <unicode hex="006E"/>
  <outline>
    <contour>
      <point x="75" y="0" type="line"/>
      <point x="225" y="0" type="line"/>
      <point x="274" y="231" type="line" smooth="yes"/>
      <point x="297" y="341"/>
      <point x="371" y="405"/>
      <point x="426" y="405" type="curve"/>
      <point x="463" y="405"/>
      <point x="485" y="387"/>
      <point x="485" y="347" type="curve" smooth="yes"/>
      <point x="485" y="337"/>
      <point x="483" y="327"/>
      <point x="481" y="315" type="curve" smooth="yes"/>
      <point x="414" y="0" type="line"/>
      <point x="564" y="0" type="line"/>
      <point x="631" y="313" type="line" smooth="yes"/>
      <point x="636" y="335"/>
      <point x="638" y="355"/>
      <point x="638" y="374" type="curve" smooth="yes"/>
      <point x="638" y="477"/>
      <point x="574" y="537"/>
      <point x="485" y="537" type="curve"/>
      <point x="400" y="537"/>
      <point x="333" y="494"/>
      <point x="292" y="424" type="curve"/>
      <point x="311" y="414" type="line"/>
      <point x="311" y="525" type="line"/>
      <point x="167" y="525" type="line"/>
      <point x="167" y="476" type="line" smooth="yes"/>
      <point x="167" y="447"/>
      <point x="166" y="428"/>
      <point x="160" y="400" type="curve" smooth="yes"/>
    </contour>
    <contour>
      <point x="437.0" y="525.0" type="move" name="top"/>
    </contour>
  </outline>
</glyph>
<glyph name="r" format="1">
  <advance width="393.10294094869136"/>
  <unicode hex="0072"/>
  <outline>
    <contour>
      <point x="75" y="0" type="line"/>
      <point x="225" y="0" type="line"/>
      <point x="274" y="231" type="line" smooth="yes"/>
      <point x="299" y="347"/>
      <point x="358" y="384"/>
      <point x="454" y="390" type="curve"/>
      <point x="485" y="537" type="line"/>
      <point x="400.0" y="537.0"/>
      <point x="338" y="495"/>
      <point x="292" y="409" type="curve"/>
      <point x="311" y="399" type="line"/>
      <point x="311" y="525" type="line"/>
      <point x="167" y="525" type="line"/>
      <point x="167" y="476" type="line" smooth="yes"/>
      <point x="167" y="447"/>
      <point x="166" y="428"/>
      <point x="160" y="400" type="curve" smooth="yes"/>
    </contour>
    <contour>
      <point x="366.5921948767616" y="525.0" type="move" name="top"/>
    </contour>
  </outline>
</glyph>
<glyph name="t" format="1">
  <advance width="435.29954750663984"/>
  <unicode hex="0074"/>
  <outline>
    <contour>
      <point x="102" y="410" type="line"/>
      <point x="481" y="410" type="line"/>
      <point x="506" y="525" type="line"/>
      <point x="127" y="525" type="line"/>
    </contour>
    <contour>
      <point x="141" y="140" type="curve" smooth="yes"/>
      <point x="141" y="43"/>
      <point x="204" y="-12"/>
      <point x="306" y="-12" type="curve"/>
      <point x="338" y="-12"/>
      <point x="380" y="-4"/>
      <point x="412" y="8" type="curve"/>
      <point x="405" y="137" type="line"/>
      <point x="382" y="127"/>
      <point x="357" y="121"/>
      <point x="338" y="121" type="curve"/>
      <point x="310" y="121"/>
      <point x="293" y="137"/>
      <point x="293" y="167" type="curve" smooth="yes"/>
      <point x="293" y="174"/>
      <point x="294" y="182"/>
      <point x="296" y="191" type="curve" smooth="yes"/>
      <point x="395" y="661" type="line"/>
      <point x="241" y="641" type="line"/>
      <point x="147" y="197" type="line" smooth="yes"/>
      <point x="143" y="177"/>
      <point x="141" y="158"/>
    </contour>
  </outline>
</glyph>
<glyph name="v" format="1">
  <advance width="520"/>
  <unicode hex="0076"/>
  <outline>
    <contour>
      <point x="112" y="525" type="line"/>
      <point x="201" y="0" type="line"/>
      <point x="287" y="0" type="line"/>
      <point x="312" y="81" type="line"/>
      <point x="266" y="525" type="line"/>
    </contour>
    <contour>
      <point x="231" y="0" type="line"/>
      <point x="319" y="0" type="line"/>
      <point x="631" y="525" type="line"/>
      <point x="466" y="525" type="line"/>
      <point x="247" y="81" type="line"/>
    </contour>
  </outline>
</glyph>
<glyph name="z" format="1">
  <advance width="491.0"/>
  <unicode hex="007A"/>
  <outline>
    <contour>
      <point x="35.0" y="0.0" type="line"/>
      <point x="456" y="0" type="line"/>
      <point x="480" y="115" type="line"/>
      <point x="118.44400459205255" y="115.0" type="line"/>
      <point x="53.06730774195188" y="85.0" type="line"/>
    </contour>
    <contour>
      <point x="53.06730774195188" y="85.0" type="line"/>
      <point x="168" y="0" type="line"/>
      <point x="540" y="440" type="line"/>
      <point x="425" y="525" type="line"/>
    </contour>
    <contour>
      <point x="132.14819028470907" y="410.0" type="line"/>
      <point x="475" y="410" type="line"/>
      <point x="540" y="440" type="line"/>
      <point x="558" y="525" type="line"/>
      <point x="156.5921948767616" y="525.0" type="line"/>
    </contour>
    <contour>
      <point x="361.5921948767616" y="525.0" type="move" name="top"/>
    </contour>
  </outline>
</glyph>
<glyph name="braceleft" format="1">
  <advance width="363"/>
  <unicode hex="007B"/>
  <outline>
    <contour>
      <point x="106.97500012907489" y="221.0" type="line"/>
      <point x="204.3615385806845" y="204.0"/>
      <point x="219.4099548539239" y="176.0"/>
      <point x="210.05746614044293" y="132.0" type="curve"/>
      <point x="194.11572401519126" y="57.0"/>
      <point x="104.70045249336017" y="8.0"/>
      <point x="85.7829185047282" y="-81.0" type="curve" smooth="yes"/>
      <point x="65.59004514607611" y="-176.0"/>
      <point x="120.79807677414436" y="-255.0"/>
      <point x="262.9092758557338" y="-278.0" type="curve"/>
      <point x="306.5514704743457" y="-195.0" type="line"/>
      <point x="228.71561076277632" y="-166.0"/>
      <point x="216.00531666790718" y="-127.0"/>
      <point x="225.57036194305817" y="-82.0" type="curve" smooth="yes"/>
      <point x="241.2995475066398" y="-8.0"/>
      <point x="315.565045275151" y="45.0"/>
      <point x="335.120248948793" y="137.0" type="curve"/>
      <point x="348.72386889567446" y="201.0"/>
      <point x="314.5642535408456" y="252.0"/>
      <point x="237.96515852756593" y="268.0" type="curve"/>
      <point x="321.3660635142863" y="284.0"/>
      <point x="377.4190047211274" y="336.0"/>
      <point x="391.02262466800886" y="400.0" type="curve"/>
      <point x="410.5778283416509" y="492.0"/>
      <point x="358.418212986822" y="543.0"/>
      <point x="374.14739855040364" y="617.0" type="curve" smooth="yes"/>
      <point x="383.71244382555466" y="662.0"/>
      <point x="413.0021497306855" y="701.0"/>
      <point x="503.16629001911616" y="730.0" type="curve"/>
      <point x="494.808484637728" y="813.0" type="line"/>
      <point x="342.9196837193175" y="790.0"/>
      <point x="254.12771534738573" y="711.0"/>
      <point x="233.93484198873364" y="616.0" type="curve" smooth="yes"/>
      <point x="215.01730800010165" y="527.0"/>
      <point x="283.81459303994063" y="479.0"/>
      <point x="267.8728509146889" y="404.0" type="curve"/>
      <point x="258.52036220120794" y="360.0"/>
      <point x="231.56877847444736" y="332.0"/>
      <point x="126.95531692605697" y="315.0" type="curve"/>
    </contour>
  </outline>
</glyph>
<glyph name="asciitilde" format="1">
  <advance width="660"/>
  <unicode hex="007E"/>
  <outline>
    <contour>
      <point x="167.64140288430642" y="290.0" type="curve"/>
      <point x="237.64140288430642" y="290.0" type="line"/>
      <point x="261.5445703378276" y="346.0"/>
      <point x="285.37058844788805" y="364.0"/>
      <point x="310.37058844788805" y="364.0" type="curve"/>
      <point x="363.37058844788805" y="364.0"/>
      <point x="392.57862007595634" y="285.0"/>
      <point x="477.57862007595634" y="285.0" type="curve" smooth="yes"/>
      <point x="553.5786200759563" y="285.0"/>
      <point x="620.6943440911475" y="342.0"/>
      <point x="653.9015839849104" y="470.0" type="curve"/>
      <point x="583.9015839849104" y="470.0" type="line"/>
      <point x="560.9984165313891" y="414.0"/>
      <point x="536.1723984213288" y="396.0"/>
      <point x="511.17239842132875" y="396.0" type="curve"/>
      <point x="457.17239842132875" y="396.0"/>
      <point x="427.9643667932605" y="475.0"/>
      <point x="343.9643667932605" y="475.0" type="curve" smooth="yes"/>
      <point x="267.9643667932605" y="475.0"/>
      <point x="199.84864277806923" y="418.0"/>
    </contour>
  </outline>
</glyph>
<glyph name="currency" format="1">
  <advance width="660"/>
  <unicode hex="00A4"/>
  <outline>
    <contour>
      <point x="178.33201377615762" y="345.0" type="curve" smooth="yes"/>
      <point x="146.02341640231427" y="193.0"/>
      <point x="221.3184389753523" y="105.0"/>
      <point x="352.3184389753523" y="105.0" type="curve" smooth="yes"/>
      <point x="483.3184389753523" y="105.0"/>
      <point x="596.0234164023143" y="193.0"/>
      <point x="628.3320137761576" y="345.0" type="curve" smooth="yes"/>
      <point x="660.640611150001" y="497.0"/>
      <point x="585.3455885769629" y="585.0"/>
      <point x="454.34558857696294" y="585.0" type="curve" smooth="yes"/>
      <point x="323.34558857696294" y="585.0"/>
      <point x="210.640611150001" y="497.0"/>
    </contour>
    <contour>
      <point x="308.3320137761576" y="345.0" type="curve" smooth="yes"/>
      <point x="323.84864277806923" y="418.0"/>
      <point x="368.7760183682102" y="460.0"/>
      <point x="427.7760183682102" y="460.0" type="curve" smooth="yes"/>
      <point x="486.7760183682102" y="460.0"/>
      <point x="513.8486427780692" y="418.0"/>
      <point x="498.3320137761576" y="345.0" type="curve" smooth="yes"/>
      <point x="482.815384774246" y="272.0"/>
      <point x="437.8880091841051" y="230.0"/>
      <point x="378.8880091841051" y="230.0" type="curve" smooth="yes"/>
      <point x="319.8880091841051" y="230.0"/>
      <point x="292.815384774246" y="272.0"/>
    </contour>
    <contour>
      <point x="89.28438923722368" y="166.0" type="line"/>
      <point x="165.66640275523153" y="69.0" type="line"/>
      <point x="256.60814488048317" y="144.0" type="line"/>
      <point x="180.22613136247534" y="241.0" type="line"/>
    </contour>
    <contour>
      <point x="464.60814488048317" y="144.0" type="line"/>
      <point x="523.6664027552315" y="69.0" type="line"/>
      <point x="641.2843892372236" y="166.0" type="line"/>
      <point x="582.2261313624754" y="241.0" type="line"/>
    </contour>
    <contour>
      <point x="165.3796383150916" y="524.0" type="line"/>
      <point x="224.43789618983993" y="449.0" type="line"/>
      <point x="342.0558826718321" y="546.0" type="line"/>
      <point x="282.99762479708374" y="621.0" type="line"/>
    </contour>
    <contour>
      <point x="550.055882671832" y="546.0" type="line"/>
      <point x="626.4378961898399" y="449.0" type="line"/>
      <point x="717.3796383150916" y="524.0" type="line"/>
      <point x="640.9976247970837" y="621.0" type="line"/>
    </contour>
  </outline>
</glyph>
<glyph name="yen" format="1">
  <advance width="656"/>
  <unicode hex="00A5"/>
  <outline>
    <contour>
      <point x="146.66402755231528" y="690.0" type="line"/>
      <point x="316.26470603420574" y="260.0" type="line"/>
      <point x="398.26470603420574" y="260.0" type="line"/>
      <point x="431.3849549829988" y="397.0" type="line"/>
      <point x="330.66402755231525" y="690.0" type="line"/>
    </contour>
    <contour>
      <point x="131.38122178370244" y="110.0" type="line"/>
      <point x="571.3812217837025" y="110.0" type="line"/>
      <point x="594.7624435674048" y="220.0" type="line"/>
      <point x="154.76244356740486" y="220.0" type="line"/>
    </contour>
    <contour>
      <point x="167.5158372676062" y="280.0" type="line"/>
      <point x="607.5158372676062" y="280.0" type="line"/>
      <point x="630.8970590513086" y="390.0" type="line"/>
      <point x="190.89705905130864" y="390.0" type="line"/>
    </contour>
    <contour>
      <point x="248.0" y="0.0" type="line"/>
      <point x="408.0" y="0.0" type="line"/>
      <point x="469.64140288430644" y="290.0" type="line"/>
      <point x="309.64140288430644" y="290.0" type="line"/>
    </contour>
    <contour>
      <point x="397.3849549829988" y="397.0" type="line"/>
      <point x="376.26470603420574" y="260.0" type="line"/>
      <point x="450.26470603420574" y="260.0" type="line"/>
      <point x="802.6640275523152" y="690.0" type="line"/>
      <point x="622.6640275523152" y="690.0" type="line"/>
    </contour>
  </outline>
</glyph>
<glyph name="ordfeminine" format="1">
  <advance width="440"/>
  <unicode hex="00AA"/>
  <outline>
    <contour>
      <point x="123.74728529798871" y="394.0" type="curve" smooth="yes"/>
      <point x="108.44321285774713" y="322.0"/>
      <point x="154.09072414426615" y="278.0"/>
      <point x="220.09072414426615" y="278.0" type="curve" smooth="yes"/>
      <point x="278.0907241442662" y="278.0"/>
      <point x="335.8925341177069" y="310.0"/>
      <point x="376.45757939285784" y="355.0" type="curve"/>
      <point x="392.3993215181095" y="430.0" type="line"/>
      <point x="352.89705905130864" y="390.0"/>
      <point x="312.58314500955805" y="365.0"/>
      <point x="272.58314500955805" y="365.0" type="curve" smooth="yes"/>
      <point x="245.58314500955808" y="365.0"/>
      <point x="230.7714934346084" y="380.0"/>
      <point x="236.08540747635897" y="405.0" type="curve" smooth="yes"/>
      <point x="241.3993215181095" y="430.0"/>
      <point x="271.50067899819004" y="454.0"/>
      <point x="346.7760183682102" y="460.0" type="curve" smooth="yes"/>
      <point x="393.62624461489025" y="464.0" type="line"/>
      <point x="408.93031705513187" y="536.0" type="line"/>
      <point x="358.5052039317918" y="534.0" type="line" smooth="yes"/>
      <point x="204.22986456177168" y="528.0"/>
      <point x="138.62624461489025" y="464.0"/>
    </contour>
    <contour>
      <point x="184.01199133219447" y="654.0" type="curve"/>
      <point x="205.3070139052325" y="566.0" type="line"/>
      <point x="239.13303201529294" y="584.0"/>
      <point x="285.9590501253533" y="602.0"/>
      <point x="322.9590501253533" y="602.0" type="curve" smooth="yes"/>
      <point x="369.9590501253533" y="602.0"/>
      <point x="390.6451360836028" y="577.0"/>
      <point x="380.6549776851117" y="530.0" type="curve" smooth="yes"/>
      <point x="348.7714934346084" y="380.0" type="line"/>
      <point x="343.39479658450773" y="350.0" type="line"/>
      <point x="346.64140288430644" y="290.0" type="line"/>
      <point x="456.64140288430644" y="290.0" type="line"/>
      <point x="457.0808825427572" y="325.0" type="line" smooth="yes"/>
      <point x="457.7571268994977" y="347.0"/>
      <point x="460.37058844788805" y="364.0"/>
      <point x="465.04683280462854" y="386.0" type="curve" smooth="yes"/>
      <point x="497.7805433018119" y="540.0" type="line" smooth="yes"/>
      <point x="520.3115388388343" y="646.0"/>
      <point x="460.2147062923556" y="702.0"/>
      <point x="354.2147062923556" y="702.0" type="curve" smooth="yes"/>
      <point x="294.2147062923556" y="702.0"/>
      <point x="229.113348812275" y="678.0"/>
    </contour>
  </outline>
</glyph>
<glyph name="logicalnot" format="1">
  <advance width="660"/>
  <unicode hex="00AC"/>
  <outline>
    <contour>
      <point x="139.40011325241494" y="223.0" type="line"/>
      <point x="615.4001132524149" y="223.0" type="line"/>
      <point x="643.882692516198" y="357.0" type="line"/>
      <point x="167.8826925161979" y="357.0" type="line"/>
    </contour>
    <contour>
      <point x="439.69061089185124" y="55.0" type="line"/>
      <point x="579.6906108918512" y="55.0" type="line"/>
      <point x="643.882692516198" y="357.0" type="line"/>
      <point x="503.8826925161979" y="357.0" type="line"/>
    </contour>
  </outline>
</glyph>
<glyph name="degree" format="1">
  <advance width="404"/>
  <unicode hex="00B0"/>
  <outline>
    <contour>
      <point x="143.08009080845176" y="532.0" type="curve" smooth="yes"/>
      <point x="122.67466088812965" y="436.0"/>
      <point x="181.945475324548" y="362.0"/>
      <point x="278.945475324548" y="362.0" type="curve" smooth="yes"/>
      <point x="375.945475324548" y="362.0"/>
      <point x="466.67466088812967" y="436.0"/>
      <point x="487.08009080845176" y="532.0" type="curve" smooth="yes"/>
      <point x="507.27296416710385" y="627.0"/>
      <point x="448.2147062923556" y="702.0"/>
      <point x="351.2147062923556" y="702.0" type="curve" smooth="yes"/>
      <point x="254.21470629235554" y="702.0"/>
      <point x="163.27296416710388" y="627.0"/>
    </contour>
    <contour>
      <point x="243.08009080845176" y="532.0" type="curve" smooth="yes"/>
      <point x="252.22002296026272" y="575.0"/>
      <point x="289.2343894953734" y="608.0"/>
      <point x="331.2343894953734" y="608.0" type="curve" smooth="yes"/>
      <point x="373.2343894953734" y="608.0"/>
      <point x="396.2200229602627" y="575.0"/>
      <point x="387.08009080845176" y="532.0" type="curve" smooth="yes"/>
      <point x="377.94015865664085" y="489.0"/>
      <point x="340.9257921215301" y="456.0"/>
      <point x="298.9257921215301" y="456.0" type="curve" smooth="yes"/>
      <point x="256.9257921215301" y="456.0"/>
      <point x="233.94015865664082" y="489.0"/>
    </contour>
  </outline>
</glyph>
<glyph name="plusminus" format="1">
  <advance width="660"/>
  <unicode hex="00B1"/>
  <outline>
    <contour>
      <point x="103.69061089185122" y="55.0" type="line"/>
      <point x="579.6906108918512" y="55.0" type="line"/>
      <point x="608.1731901556342" y="189.0" type="line"/>
      <point x="132.1731901556342" y="189.0" type="line"/>
    </contour>
    <contour>
      <point x="149.815384774246" y="272.0" type="line"/>
      <point x="625.815384774246" y="272.0" type="line"/>
      <point x="654.297964038029" y="406.0" type="line"/>
      <point x="178.29796403802897" y="406.0" type="line"/>
    </contour>
    <contour>
      <point x="271.69061089185124" y="55.0" type="line"/>
      <point x="411.69061089185124" y="55.0" type="line"/>
      <point x="511.5921948767616" y="525.0" type="line"/>
      <point x="371.5921948767616" y="525.0" type="line"/>
    </contour>
  </outline>
</glyph>
<glyph name="twosuperior" format="1">
  <advance width="440"/>
  <unicode hex="00B2"/>
  <outline>
    <contour>
      <point x="230.0316745352124" y="560.0" type="line"/>
      <point x="259.34558857696294" y="585.0"/>
      <point x="292.0218329337034" y="607.0"/>
      <point x="324.0218329337034" y="607.0" type="curve" smooth="yes"/>
      <point x="354.0218329337034" y="607.0"/>
      <point x="370.40837138531305" y="590.0"/>
      <point x="365.0944573435625" y="565.0" type="curve" smooth="yes"/>
      <point x="359.7805433018119" y="540.0"/>
      <point x="335.5294120684115" y="520.0"/>
      <point x="287.02714960161063" y="480.0" type="curve" smooth="yes"/>
      <point x="141.52036220120794" y="360.0" type="line"/>
      <point x="181.64140288430642" y="290.0" type="line"/>
      <point x="344.2737559014093" y="420.0" type="line" smooth="yes"/>
      <point x="422.4522627249507" y="482.0"/>
      <point x="466.3796383150916" y="524.0"/>
      <point x="478.28280576861283" y="580.0" type="curve" smooth="yes"/>
      <point x="493.1617650855144" y="650.0"/>
      <point x="444.2147062923556" y="702.0"/>
      <point x="360.2147062923556" y="702.0" type="curve" smooth="yes"/>
      <point x="300.2147062923556" y="702.0"/>
      <point x="243.47567912726493" y="675.0"/>
      <point x="189.97341666046404" y="635.0" type="curve"/>
    </contour>
    <contour>
      <point x="126.64140288430642" y="290.0" type="line"/>
      <point x="426.64140288430644" y="290.0" type="line"/>
      <point x="445.7714934346084" y="380.0" type="line"/>
      <point x="197.7714934346084" y="380.0" type="line"/>
      <point x="141.52036220120794" y="360.0" type="line"/>
    </contour>
  </outline>
</glyph>
<glyph name="threesuperior" format="1">
  <advance width="440"/>
  <unicode hex="00B3"/>
  <outline>
    <contour>
      <point x="125.56877847444734" y="332.0" type="line"/>
      <point x="156.91674225432655" y="296.0"/>
      <point x="202.09072414426615" y="278.0"/>
      <point x="264.0907241442662" y="278.0" type="curve" smooth="yes"/>
      <point x="349.0907241442662" y="278.0"/>
      <point x="434.0808825427572" y="325.0"/>
      <point x="453.2109730930592" y="415.0" type="curve" smooth="yes"/>
      <point x="469.15271521831085" y="490.0"/>
      <point x="413.7177604934618" y="535.0"/>
      <point x="324.7177604934618" y="535.0" type="curve"/>
      <point x="283.7177604934618" y="535.0" type="line"/>
      <point x="239.46662926006138" y="515.0" type="line"/>
      <point x="227.77601836821017" y="460.0" type="line"/>
      <point x="288.7760183682102" y="460.0" type="line" smooth="yes"/>
      <point x="332.7760183682102" y="460.0"/>
      <point x="349.5876699431599" y="445.0"/>
      <point x="343.2109730930592" y="415.0" type="curve" smooth="yes"/>
      <point x="336.83427624295854" y="385.0"/>
      <point x="308.22081469456816" y="368.0"/>
      <point x="278.22081469456816" y="368.0" type="curve" smooth="yes"/>
      <point x="243.22081469456816" y="368.0"/>
      <point x="216.83427624295854" y="385.0"/>
      <point x="197.14819028470907" y="410.0" type="curve"/>
    </contour>
    <contour>
      <point x="198.53393700201326" y="600.0" type="line"/>
      <point x="444.53393700201326" y="600.0" type="line"/>
      <point x="477.78506823541375" y="620.0" type="line"/>
      <point x="492.66402755231525" y="690.0" type="line"/>
      <point x="217.66402755231528" y="690.0" type="line"/>
    </contour>
    <contour>
      <point x="239.46662926006138" y="515.0" type="line"/>
      <point x="349.4666292600614" y="515.0" type="line"/>
      <point x="477.78506823541375" y="620.0" type="line"/>
      <point x="446.66402755231525" y="690.0" type="line"/>
    </contour>
  </outline>
</glyph>
<glyph name="guillemetright" format="1">
  <advance width="546"/>
  <unicode hex="00BB"/>
  <outline>
    <contour>
      <point x="38.704977426961946" y="88.0" type="line"/>
      <point x="200.70497742696193" y="88.0" type="line"/>
      <point x="329.80101823913526" y="239.0" type="line"/>
      <point x="344.8925341177069" y="310.0" type="line"/>
      <point x="222.3418553776666" y="298.0" type="line"/>
    </contour>
    <contour>
      <point x="118.41368805322024" y="463.0" type="line"/>
      <point x="212.77681010251558" y="253.0" type="line"/>
      <point x="330.2261313624753" y="241.0" type="line"/>
      <point x="345.31764724104687" y="312.0" type="line"/>
      <point x="280.41368805322026" y="463.0" type="line"/>
    </contour>
    <contour>
      <point x="270.70497742696193" y="88.0" type="line"/>
      <point x="432.70497742696193" y="88.0" type="line"/>
      <point x="561.8010182391353" y="239.0" type="line"/>
      <point x="576.8925341177069" y="310.0" type="line"/>
      <point x="454.3418553776666" y="298.0" type="line"/>
    </contour>
    <contour>
      <point x="350.41368805322026" y="463.0" type="line"/>
      <point x="444.7768101025156" y="253.0" type="line"/>
      <point x="562.2261313624754" y="241.0" type="line"/>
      <point x="577.3176472410469" y="312.0" type="line"/>
      <point x="512.4136880532202" y="463.0" type="line"/>
    </contour>
  </outline>
</glyph>
<glyph name="questiondown" format="1">
  <advance width="518"/>
  <unicode hex="00BF"/>
  <outline>
    <contour>
      <point x="53.299547506639826" y="-8.0" type="curve"/>
      <point x="29.493212599597346" y="-120.0"/>
      <point x="102.12635735100565" y="-197.0"/>
      <point x="231.12635735100565" y="-197.0" type="curve"/>
      <point x="322.12635735100565" y="-197.0"/>
      <point x="418.9039591878267" y="-151.0"/>
      <point x="488.869909449698" y="-90.0" type="curve"/>
      <point x="424.4636877950705" y="21.0" type="line"/>
      <point x="371.83585971156936" y="-29.0"/>
      <point x="329.37217191649887" y="-50.0"/>
      <point x="282.37217191649887" y="-50.0" type="curve"/>
      <point x="234.3721719164989" y="-50.0"/>
      <point x="214.32375564325952" y="-22.0"/>
      <point x="220.7004524933602" y="8.0" type="curve"/>
      <point x="225.5892534117707" y="31.0"/>
      <point x="244.96595026187134" y="61.0"/>
      <point x="313.89332585201225" y="103.0" type="curve" smooth="yes"/>
      <point x="351.7821267704228" y="126.0"/>
      <point x="375.5839367438635" y="158.0"/>
      <point x="381.5740951423545" y="205.0" type="curve" smooth="yes"/>
      <point x="390.5158372676062" y="280.0" type="line"/>
      <point x="271.5158372676062" y="280.0" type="line"/>
      <point x="259.52567886911515" y="233.0" type="line" smooth="yes"/>
      <point x="254.48710419738472" y="214.0"/>
      <point x="242.87364264899435" y="197.0"/>
      <point x="223.5355204706241" y="186.0" type="curve" smooth="yes"/>
      <point x="105.44400459205255" y="115.0"/>
      <point x="68.17850682354137" y="62.0"/>
    </contour>
    <contour>
      <point x="459.5876699431599" y="445.0" type="curve" smooth="yes"/>
      <point x="470.640611150001" y="497.0"/>
      <point x="440.14287361680186" y="537.0"/>
      <point x="385.14287361680186" y="537.0" type="curve" smooth="yes"/>
      <point x="330.14287361680186" y="537.0"/>
      <point x="282.640611150001" y="497.0"/>
      <point x="271.5876699431599" y="445.0" type="curve"/>
      <point x="260.3221721746487" y="392.0"/>
      <point x="291.03246626951784" y="353.0"/>
      <point x="346.03246626951784" y="353.0" type="curve" smooth="yes"/>
      <point x="401.03246626951784" y="353.0"/>
      <point x="448.3221721746487" y="392.0"/>
    </contour>
  </outline>
</glyph>
<glyph name="ae" format="1">
  <advance width="856"/>
  <unicode hex="00E6"/>
  <outline>
    <contour>
      <point x="63.332805510463054" y="138.0" type="curve" smooth="yes"/>
      <point x="44.20271496016106" y="48.0"/>
      <point x="99.44932125995973" y="-12.0"/>
      <point x="196.44932125995973" y="-12.0" type="curve" smooth="yes"/>
      <point x="293.44932125995973" y="-12.0"/>
      <point x="373.43947965845075" y="35.0"/>
      <point x="439.130090550302" y="90.0" type="curve"/>
      <point x="386.6467195522136" y="163.0" type="line"/>
      <point x="341.6323530171029" y="130.0"/>
      <point x="300.2314480303825" y="114.0"/>
      <point x="260.2314480303825" y="114.0" type="curve" smooth="yes"/>
      <point x="222.23144803038252" y="114.0"/>
      <point x="207.05746614044293" y="132.0"/>
      <point x="212.5839367438635" y="158.0" type="curve" smooth="yes"/>
      <point x="218.11040734728408" y="184.0"/>
      <point x="245.63687795070464" y="210.0"/>
      <point x="336.9750001290749" y="221.0" type="curve" smooth="yes"/>
      <point x="421.1005657457751" y="231.0" type="line"/>
      <point x="431.742760364387" y="314.0" type="line"/>
      <point x="339.31764724104687" y="312.0" type="line" smooth="yes"/>
      <point x="171.46742099436682" y="308.0"/>
      <point x="83.95079199245521" y="235.0"/>
    </contour>
    <contour>
      <point x="156.7903849033209" y="493.0" type="curve"/>
      <point x="172.0710409412482" y="372.0" type="line"/>
      <point x="215.10961561297864" y="391.0"/>
      <point x="267.08540747635897" y="405.0"/>
      <point x="322.08540747635897" y="405.0" type="curve" smooth="yes"/>
      <point x="391.08540747635897" y="405.0"/>
      <point x="418.1338237495983" y="377.0"/>
      <point x="405.59298661106703" y="318.0" type="curve"/>
      <point x="397.5158372676062" y="280.0" type="line"/>
      <point x="536.5158372676062" y="280.0" type="line"/>
      <point x="546.2934391044272" y="326.0" type="line" smooth="yes"/>
      <point x="575.6262446148903" y="464.0"/>
      <point x="508.14287361680186" y="537.0"/>
      <point x="373.14287361680186" y="537.0" type="curve" smooth="yes"/>
      <point x="292.14287361680186" y="537.0"/>
      <point x="212.67918582173144" y="516.0"/>
    </contour>
    <contour>
      <point x="391.5642535408456" y="252.0" type="curve" smooth="yes"/>
      <point x="357.9803167969821" y="94.0"/>
      <point x="425.44932125995973" y="-12.0"/>
      <point x="606.4493212599598" y="-12.0" type="curve" smooth="yes"/>
      <point x="677.4493212599598" y="-12.0"/>
      <point x="740.4878959316901" y="7.0"/>
      <point x="792.9515837267606" y="28.0" type="curve"/>
      <point x="776.8207014421532" y="145.0" type="line"/>
      <point x="737.9946833320928" y="127.0"/>
      <point x="689.6565611537226" y="116.0"/>
      <point x="650.6565611537226" y="116.0" type="curve" smooth="yes"/>
      <point x="564.6565611537226" y="116.0"/>
      <point x="515.7095023605638" y="168.0"/>
      <point x="535.6898191575458" y="262.0" type="curve" smooth="yes"/>
      <point x="559.4961540645883" y="374.0"/>
      <point x="610.4235296547292" y="416.0"/>
      <point x="672.4235296547292" y="416.0" type="curve" smooth="yes"/>
      <point x="731.4235296547292" y="416.0"/>
      <point x="756.7087106262583" y="375.0"/>
      <point x="734.815384774246" y="272.0" type="curve"/>
      <point x="774.5302038027169" y="313.0" type="line"/>
      <point x="503.5302038027169" y="313.0" type="line"/>
      <point x="483.33733044406483" y="218.0" type="line"/>
      <point x="862.3373304440648" y="218.0" type="line"/>
      <point x="866.888009184105" y="230.0"/>
      <point x="874.3516969791756" y="251.0"/>
      <point x="879.240497897586" y="274.0" type="curve" smooth="yes"/>
      <point x="913.8872174497997" y="437.0"/>
      <point x="844.1428736168019" y="537.0"/>
      <point x="701.1428736168019" y="537.0" type="curve" smooth="yes"/>
      <point x="548.1428736168019" y="537.0"/>
      <point x="428.1239821480894" y="424.0"/>
    </contour>
    <contour>
      <point x="539.4666292600614" y="515.0" type="move" name="top"/>
    </contour>
  </outline>
</glyph>
<glyph name="eth" format="1">
  <advance width="580"/>
  <unicode hex="00F0"/>
  <outline>
    <contour>
      <point x="94.95079199245521" y="235.0" type="curve" smooth="yes"/>
      <point x="60.94174212525166" y="75.0"/>
      <point x="152.44932125995973" y="-12.0"/>
      <point x="283.44932125995973" y="-12.0" type="curve" smooth="yes"/>
      <point x="417.44932125995973" y="-12.0"/>
      <point x="548.0673077419519" y="85.0"/>
      <point x="589.5158372676062" y="280.0" type="curve" smooth="yes"/>
      <point x="627.7760183682102" y="460.0"/>
      <point x="536.0361994688142" y="640.0"/>
      <point x="433.0407244024159" y="720.0" type="curve"/>
      <point x="253.04072440241592" y="720.0" type="line"/>
      <point x="387.53393700201326" y="600.0"/>
      <point x="473.5248871348097" y="440.0"/>
      <point x="439.5158372676062" y="280.0" type="curve" smooth="yes"/>
      <point x="415.07183267555365" y="165.0"/>
      <point x="364.3812217837024" y="110.0"/>
      <point x="309.3812217837024" y="110.0" type="curve" smooth="yes"/>
      <point x="256.3812217837024" y="110.0"/>
      <point x="222.94626705885344" y="155.0"/>
      <point x="239.9507919924552" y="235.0" type="curve" smooth="yes"/>
      <point x="256.955316926057" y="315.0"/>
      <point x="309.52036220120794" y="360.0"/>
      <point x="362.52036220120794" y="360.0" type="curve" smooth="yes"/>
      <point x="410.52036220120794" y="360.0"/>
      <point x="444.56877847444736" y="332.0"/>
      <point x="459.5158372676062" y="280.0" type="curve"/>
      <point x="500.7714934346084" y="380.0" type="line"/>
      <point x="481.3993215181095" y="430.0"/>
      <point x="442.4522627249507" y="482.0"/>
      <point x="362.4522627249507" y="482.0" type="curve" smooth="yes"/>
      <point x="257.4522627249507" y="482.0"/>
      <point x="128.95984185965875" y="395.0"/>
    </contour>
    <contour>
      <point x="279.2540726983914" y="514.0" type="line"/>
      <point x="606.2487560304842" y="641.0" type="line"/>
      <point x="585.5914031424562" y="732.0" type="line"/>
      <point x="258.5967198103634" y="605.0" type="line"/>
    </contour>
  </outline>
</glyph>
<glyph name="divide" format="1">
  <advance width="660"/>
  <unicode hex="00F7"/>
  <outline>
    <contour>
      <point x="139.40011325241494" y="223.0" type="line"/>
      <point x="615.4001132524149" y="223.0" type="line"/>
      <point x="643.882692516198" y="357.0" type="line"/>
      <point x="167.8826925161979" y="357.0" type="line"/>
    </contour>
    <contour>
      <point x="257.55520367364204" y="92.0" type="curve" smooth="yes"/>
      <point x="246.92737559014094" y="42.0"/>
      <point x="276.21255656167" y="1.0"/>
      <point x="330.21255656167" y="1.0" type="curve" smooth="yes"/>
      <point x="384.21255656167" y="1.0"/>
      <point x="430.9273755901409" y="42.0"/>
      <point x="441.55520367364204" y="92.0" type="curve" smooth="yes"/>
      <point x="452.1830317571431" y="142.0"/>
      <point x="422.897850785614" y="183.0"/>
      <point x="368.897850785614" y="183.0" type="curve" smooth="yes"/>
      <point x="314.897850785614" y="183.0"/>
      <point x="268.1830317571431" y="142.0"/>
    </contour>
    <contour>
      <point x="341.7276020949708" y="488.0" type="curve" smooth="yes"/>
      <point x="331.09977401146966" y="438.0"/>
      <point x="360.3849549829988" y="397.0"/>
      <point x="414.3849549829988" y="397.0" type="curve" smooth="yes"/>
      <point x="468.3849549829988" y="397.0"/>
      <point x="515.0997740114697" y="438.0"/>
      <point x="525.7276020949707" y="488.0" type="curve" smooth="yes"/>
      <point x="536.3554301784719" y="538.0"/>
      <point x="507.0702492069428" y="579.0"/>
      <point x="453.0702492069428" y="579.0" type="curve" smooth="yes"/>
      <point x="399.0702492069428" y="579.0"/>
      <point x="352.3554301784719" y="538.0"/>
    </contour>
  </outline>
</glyph>
<glyph name="OE" format="1">
  <advance width="1000"/>
  <unicode hex="0152"/>
  <outline>
    <contour>
      <point x="118.33201377615764" y="345.0" type="curve" smooth="yes"/>
      <point x="70.9319005237427" y="122.0"/>
      <point x="210.0" y="0.0"/>
      <point x="412.0" y="0.0" type="curve" smooth="yes"/>
      <point x="502.0" y="0.0" type="line"/>
      <point x="531.7579186338031" y="140.0" type="line"/>
      <point x="441.7579186338031" y="140.0" type="line" smooth="yes"/>
      <point x="324.7579186338031" y="140.0"/>
      <point x="250.72386889567446" y="201.0"/>
      <point x="281.3320137761576" y="345.0" type="curve" smooth="yes"/>
      <point x="311.94015865664085" y="489.0"/>
      <point x="411.9061089185122" y="550.0"/>
      <point x="528.9061089185121" y="550.0" type="curve" smooth="yes"/>
      <point x="618.9061089185121" y="550.0" type="line"/>
      <point x="648.6640275523152" y="690.0" type="line"/>
      <point x="558.6640275523152" y="690.0" type="line" smooth="yes"/>
      <point x="356.66402755231525" y="690.0"/>
      <point x="165.73212702857256" y="568.0"/>
    </contour>
    <contour>
      <point x="480.0" y="0.0" type="line"/>
      <point x="640.0" y="0.0" type="line"/>
      <point x="786.6640275523152" y="690.0" type="line"/>
      <point x="626.6640275523152" y="690.0" type="line"/>
    </contour>
    <contour>
      <point x="554.0" y="0.0" type="line"/>
      <point x="940.0" y="0.0" type="line"/>
      <point x="969.7579186338031" y="140.0" type="line"/>
      <point x="583.7579186338031" y="140.0" type="line"/>
    </contour>
    <contour>
      <point x="613.9409503909462" y="282.0" type="line"/>
      <point x="947.9409503909462" y="282.0" type="line"/>
      <point x="975.9984165313891" y="414.0" type="line"/>
      <point x="641.9984165313891" y="414.0" type="line"/>
    </contour>
    <contour>
      <point x="670.9061089185121" y="550.0" type="line"/>
      <point x="1051.9061089185122" y="550.0" type="line"/>
      <point x="1081.6640275523152" y="690.0" type="line"/>
      <point x="700.6640275523152" y="690.0" type="line"/>
    </contour>
  </outline>
</glyph>
<glyph name="florin" format="1">
  <advance width="660"/>
  <unicode hex="0192"/>
  <outline>
    <contour>
      <point x="65.527262337726" y="-181.0" type="line"/>
      <point x="90.6142532826958" y="-190.0"/>
      <point x="128.12635735100565" y="-197.0"/>
      <point x="159.12635735100565" y="-197.0" type="curve" smooth="yes"/>
      <point x="274.12635735100565" y="-197.0"/>
      <point x="362.58020354456715" y="-129.0"/>
      <point x="391.70045249336016" y="8.0" type="curve" smooth="yes"/>
      <point x="501.5921948767616" y="525.0" type="line" smooth="yes"/>
      <point x="513.4953623302829" y="581.0"/>
      <point x="540.6595026187135" y="610.0"/>
      <point x="590.6595026187135" y="610.0" type="curve" smooth="yes"/>
      <point x="610.6595026187135" y="610.0"/>
      <point x="632.8092763720334" y="606.0"/>
      <point x="652.5339370020133" y="600.0" type="curve"/>
      <point x="692.5528284707258" y="713.0" type="line"/>
      <point x="662.1035072107661" y="725.0"/>
      <point x="620.5914031424562" y="732.0"/>
      <point x="588.5914031424562" y="732.0" type="curve" smooth="yes"/>
      <point x="467.5914031424562" y="732.0"/>
      <point x="378.79943477052444" y="653.0"/>
      <point x="351.1670817534216" y="523.0" type="curve" smooth="yes"/>
      <point x="243.40090498672035" y="16.0" type="line" smooth="yes"/>
      <point x="230.22239816317898" y="-46.0"/>
      <point x="199.97126692977855" y="-66.0"/>
      <point x="156.97126692977855" y="-66.0" type="curve" smooth="yes"/>
      <point x="140.97126692977855" y="-66.0"/>
      <point x="127.6089366147886" y="-63.0"/>
      <point x="107.88427598480874" y="-57.0" type="curve"/>
    </contour>
    <contour>
      <point x="237.14819028470907" y="410.0" type="line"/>
      <point x="613.148190284709" y="410.0" type="line"/>
      <point x="637.5921948767616" y="525.0" type="line"/>
      <point x="261.5921948767616" y="525.0" type="line"/>
    </contour>
  </outline>
</glyph>
<glyph name="Delta" format="1">
  <advance width="656"/>
  <unicode hex="0394"/>
  <outline>
    <contour>
      <point x="0.0" y="0.0" type="line"/>
      <point x="170.0" y="0.0" type="line"/>
      <point x="456.5052039317918" y="534.0" type="line"/>
      <point x="481.66402755231525" y="690.0" type="line"/>
      <point x="407.66402755231525" y="690.0" type="line"/>
    </contour>
    <contour>
      <point x="110.0" y="0.0" type="line"/>
      <point x="546.0" y="0.0" type="line"/>
      <point x="575.7579186338031" y="140.0" type="line"/>
      <point x="139.7579186338031" y="140.0" type="line"/>
    </contour>
    <contour>
      <point x="422.5052039317918" y="534.0" type="line"/>
      <point x="482.0" y="0.0" type="line"/>
      <point x="656.0" y="0.0" type="line"/>
      <point x="541.6640275523152" y="690.0" type="line"/>
      <point x="459.66402755231525" y="690.0" type="line"/>
    </contour>
  </outline>
</glyph>
<glyph name="Omega" format="1">
  <advance width="726"/>
  <unicode hex="03A9"/>
  <outline>
    <contour>
      <point x="480.33122204185224" y="552.0" type="curve" smooth="yes"/>
      <point x="562.3312220418522" y="552.0"/>
      <point x="608.8773758482907" y="484.0"/>
      <point x="583.583145009558" y="365.0" type="curve" smooth="yes"/>
      <point x="565.5158372676062" y="280.0"/>
      <point x="520.6368779507046" y="210.0"/>
      <point x="467.00904986720354" y="160.0" type="curve"/>
      <point x="433.0" y="0.0" type="line"/>
      <point x="656.0" y="0.0" type="line"/>
      <point x="683.6323530171029" y="130.0" type="line"/>
      <point x="513.6323530171029" y="130.0" type="line"/>
      <point x="445.75339370020134" y="60.0" type="line"/>
      <point x="579.3812217837025" y="110.0"/>
      <point x="702.7624435674048" y="220.0"/>
      <point x="736.7714934346084" y="380.0" type="curve" smooth="yes"/>
      <point x="779.2828057686129" y="580.0"/>
      <point x="673.2147062923556" y="702.0"/>
      <point x="512.2147062923556" y="702.0" type="curve" smooth="yes"/>
      <point x="351.2147062923556" y="702.0"/>
      <point x="193.28280576861283" y="580.0"/>
      <point x="150.7714934346084" y="380.0" type="curve" smooth="yes"/>
      <point x="116.76244356740486" y="220.0"/>
      <point x="193.38122178370244" y="110.0"/>
      <point x="305.75339370020134" y="60.0" type="curve"/>
      <point x="267.6323530171029" y="130.0" type="line"/>
      <point x="97.63235301710287" y="130.0" type="line"/>
      <point x="70.0" y="0.0" type="line"/>
      <point x="293.0" y="0.0" type="line"/>
      <point x="327.00904986720354" y="160.0" type="line"/>
      <point x="294.6368779507046" y="210.0"/>
      <point x="279.5158372676062" y="280.0"/>
      <point x="297.58314500955805" y="365.0" type="curve" smooth="yes"/>
      <point x="322.87737584829074" y="484.0"/>
      <point x="398.33122204185224" y="552.0"/>
    </contour>
  </outline>
</glyph>
<glyph name="mu" format="1">
  <advance width="628"/>
  <unicode hex="03BC"/>
  <outline>
    <contour>
      <point x="182.51131233400443" y="200.0" type="line"/>
      <point x="152.75339370020131" y="60.0"/>
      <point x="177.44932125995973" y="-12.0"/>
      <point x="267.44932125995973" y="-12.0" type="curve" smooth="yes"/>
      <point x="330.44932125995973" y="-12.0"/>
      <point x="389.95158372676065" y="28.0"/>
      <point x="435.6421946186118" y="83.0" type="curve"/>
      <point x="456.685294223944" y="182.0" type="line"/>
      <point x="417.8207014421532" y="145.0"/>
      <point x="372.7821267704228" y="126.0"/>
      <point x="332.7821267704228" y="126.0" type="curve" smooth="yes"/>
      <point x="280.7821267704228" y="126.0"/>
      <point x="253.15882362052344" y="156.0"/>
      <point x="267.18755669074494" y="222.0" type="curve" smooth="yes"/>
      <point x="331.5921948767616" y="525.0" type="line"/>
      <point x="181.5921948767616" y="525.0" type="line"/>
      <point x="30.677036091045906" y="-185.0" type="line"/>
      <point x="180.67703609104592" y="-185.0" type="line"/>
      <point x="222.51131233400443" y="200.0" type="line"/>
    </contour>
    <contour>
      <point x="431.0574661404429" y="132.0" type="line"/>
      <point x="433.9803167969821" y="94.0" type="line"/>
      <point x="424.8260181100604" y="18.0"/>
      <point x="466.44932125995973" y="-12.0"/>
      <point x="527.4493212599598" y="-12.0" type="curve" smooth="yes"/>
      <point x="549.4493212599598" y="-12.0"/>
      <point x="574.5121040683099" y="-7.0"/>
      <point x="594.0" y="0.0" type="curve"/>
      <point x="619.7193439620727" y="121.0" type="line"/>
      <point x="613.2942308387327" y="119.0"/>
      <point x="607.0816742770626" y="118.0"/>
      <point x="601.0816742770626" y="118.0" type="curve" smooth="yes"/>
      <point x="586.0816742770626" y="118.0"/>
      <point x="579.7821267704228" y="126.0"/>
      <point x="584.2458145654932" y="147.0" type="curve"/>
      <point x="664.5921948767616" y="525.0" type="line"/>
      <point x="514.5921948767616" y="525.0" type="line"/>
    </contour>
  </outline>
</glyph>
<glyph name="emdash" format="1">
  <advance width="935"/>
  <unicode hex="2014"/>
  <outline>
    <contour>
      <point x="101.76244356740486" y="220.0" type="line"/>
      <point x="926.7624435674048" y="220.0" type="line"/>
      <point x="952.2692309678075" y="340.0" type="line"/>
      <point x="127.26923096780752" y="340.0" type="line"/>
    </contour>
  </outline>
</glyph>
<glyph name="guilsinglleft" format="1">
  <advance width="314"/>
  <unicode hex="2039"/>
  <outline>
    <contour>
      <point x="85.80101823913529" y="239.0" type="line"/>
      <point x="150.70497742696193" y="88.0" type="line"/>
      <point x="312.70497742696193" y="88.0" type="line"/>
      <point x="218.3418553776666" y="298.0" type="line"/>
      <point x="100.89253411770686" y="310.0" type="line"/>
    </contour>
    <contour>
      <point x="86.22613136247534" y="241.0" type="line"/>
      <point x="208.77681010251558" y="253.0" type="line"/>
      <point x="392.41368805322026" y="463.0" type="line"/>
      <point x="230.41368805322026" y="463.0" type="line"/>
      <point x="101.3176472410469" y="312.0" type="line"/>
    </contour>
  </outline>
</glyph>
<glyph name="guilsinglright" format="1">
  <advance width="314"/>
  <unicode hex="203A"/>
  <outline>
    <contour>
      <point x="38.704977426961946" y="88.0" type="line"/>
      <point x="200.70497742696193" y="88.0" type="line"/>
      <point x="329.80101823913526" y="239.0" type="line"/>
      <point x="344.8925341177069" y="310.0" type="line"/>
      <point x="222.3418553776666" y="298.0" type="line"/>
    </contour>
    <contour>
      <point x="118.41368805322024" y="463.0" type="line"/>
      <point x="212.77681010251558" y="253.0" type="line"/>
      <point x="330.2261313624753" y="241.0" type="line"/>
      <point x="345.31764724104687" y="312.0" type="line"/>
      <point x="280.41368805322026" y="463.0" type="line"/>
    </contour>
  </outline>
</glyph>
<glyph name="numero" format="1">
  <advance width="1146"/>
  <unicode hex="2116"/>
  <outline>
    <contour>
      <point x="860.1527152183108" y="490.0" type="curve" smooth="yes"/>
      <point x="829.7571268994977" y="347.0"/>
      <point x="891.5907241442661" y="278.0"/>
      <point x="985.0907241442661" y="278.0" type="curve" smooth="yes"/>
      <point x="1078.5907241442662" y="278.0"/>
      <point x="1169.7571268994977" y="347.0"/>
      <point x="1200.1527152183107" y="490.0" type="curve" smooth="yes"/>
      <point x="1230.548303537124" y="633.0"/>
      <point x="1168.7147062923555" y="702.0"/>
      <point x="1075.2147062923555" y="702.0" type="curve" smooth="yes"/>
      <point x="981.7147062923556" y="702.0"/>
      <point x="890.548303537124" y="633.0"/>
    </contour>
    <contour>
      <point x="970.1527152183108" y="490.0" type="curve" smooth="yes"/>
      <point x="986.1298834371742" y="565.1666666666666"/>
      <point x="1020.5339370020133" y="600.0"/>
      <point x="1053.5339370020133" y="600.0" type="curve" smooth="yes"/>
      <point x="1086.5339370020133" y="600.0"/>
      <point x="1106.0944573435625" y="565.0"/>
      <point x="1090.1527152183107" y="490.0" type="curve" smooth="yes"/>
      <point x="1074.2109730930592" y="415.0"/>
      <point x="1039.7714934346084" y="380.0"/>
      <point x="1006.7714934346084" y="380.0" type="curve" smooth="yes"/>
      <point x="973.7714934346084" y="380.0"/>
      <point x="954.1755469994475" y="414.8333333333333"/>
    </contour>
    <contour>
      <point x="783.0045249336017" y="80.0" type="line"/>
      <point x="1103.0045249336017" y="80.0" type="line"/>
      <point x="1128.5113123340045" y="200.0" type="line"/>
      <point x="808.5113123340044" y="200.0" type="line"/>
    </contour>
    <component base="N"/>
  </outline>
</glyph>
<glyph name="partialdiff" format="1">
  <advance width="660"/>
  <unicode hex="2202"/>
  <outline>
    <contour>
      <point x="286.6783123923083" y="480.0"/>
      <point x="136.52036220120794" y="360.0"/>
      <point x="102.51131233400443" y="200.0" type="curve" smooth="yes"/>
      <point x="74.87895931690154" y="70.0"/>
      <point x="141.44932125995973" y="-12.0"/>
      <point x="257.44932125995973" y="-12.0" type="curve" smooth="yes"/>
      <point x="427.44932125995973" y="-12.0"/>
      <point x="594.7579186338031" y="140.0"/>
      <point x="647.8970590513086" y="390.0" type="curve" smooth="yes"/>
      <point x="684.0316745352123" y="560.0"/>
      <point x="642.1335031338702" y="730.0"/>
      <point x="465.16629001911616" y="730.0" type="curve" smooth="yes"/>
      <point x="425.16629001911616" y="730.0"/>
      <point x="383.890950649096" y="724.0"/>
      <point x="351.9779415940658" y="715.0" type="curve"/>
      <point x="334.34558857696294" y="585.0" type="line"/>
      <point x="355.8334845086531" y="592.0"/>
      <point x="387.53393700201326" y="600.0"/>
      <point x="417.53393700201326" y="600.0" type="curve" smooth="yes"/>
      <point x="509.56210601609774" y="600.0"/>
      <point x="526.9159505200212" y="503.0"/>
      <point x="502.89705905130864" y="390.0" type="curve" smooth="yes"/>
      <point x="466.7624435674049" y="220.0"/>
      <point x="373.3812217837024" y="110.0"/>
      <point x="303.3812217837024" y="110.0" type="curve" smooth="yes"/>
      <point x="259.3812217837024" y="110.0"/>
      <point x="233.8164204397673" y="140.27522935779817"/>
      <point x="248.63687795070464" y="210.0" type="curve" smooth="yes"/>
      <point x="267.89535837047174" y="300.6040268456376"/>
      <point x="334.52036220120794" y="360.0"/>
      <point x="406.52036220120794" y="360.0" type="curve" smooth="yes"/>
      <point x="471.52036220120794" y="360.0"/>
      <point x="515.4859100524502" y="321.7617825034465"/>
      <point x="521.2647060342058" y="260.0" type="curve"/>
      <point x="561.7714934346084" y="380.0" type="line"/>
      <point x="552.3993215181096" y="430.0"/>
      <point x="522.0271496016106" y="480.0"/>
      <point x="430.02714960161063" y="480.0" type="curve" smooth="yes"/>
    </contour>
  </outline>
</glyph>
<glyph name="product" format="1">
  <advance width="750"/>
  <unicode hex="220F"/>
  <outline>
    <contour>
      <point x="95.6770360910459" y="-185.0" type="line"/>
      <point x="255.67703609104592" y="-185.0" type="line"/>
      <point x="441.66402755231525" y="690.0" type="line"/>
      <point x="281.66402755231525" y="690.0" type="line"/>
    </contour>
    <contour>
      <point x="171.9061089185122" y="550.0" type="line"/>
      <point x="811.9061089185121" y="550.0" type="line"/>
      <point x="841.6640275523152" y="690.0" type="line"/>
      <point x="201.66402755231528" y="690.0" type="line"/>
    </contour>
    <contour>
      <point x="415.6770360910459" y="-185.0" type="line"/>
      <point x="575.6770360910459" y="-185.0" type="line"/>
      <point x="761.6640275523152" y="690.0" type="line"/>
      <point x="601.6640275523152" y="690.0" type="line"/>
    </contour>
  </outline>
</glyph>
<glyph name="minus" format="1">
  <advance width="660"/>
  <unicode hex="2212"/>
  <outline>
    <contour>
      <point x="139.40011325241494" y="223.0" type="line"/>
      <point x="615.4001132524149" y="223.0" type="line"/>
      <point x="643.882692516198" y="357.0" type="line"/>
      <point x="167.8826925161979" y="357.0" type="line"/>
    </contour>
  </outline>
</glyph>
<glyph name="radical" format="1">
  <advance width="740"/>
  <unicode hex="221A"/>
  <outline>
    <contour>
      <point x="174.39479658450773" y="350.0" type="line"/>
      <point x="260.6770360910459" y="-185.0" type="line"/>
      <point x="360.6770360910459" y="-185.0" type="line"/>
      <point x="379.8071266413479" y="-95.0" type="line"/>
      <point x="333.39479658450773" y="350.0" type="line"/>
    </contour>
    <contour>
      <point x="304.8071266413479" y="-95.0" type="line"/>
      <point x="285.6770360910459" y="-185.0" type="line"/>
      <point x="380.6770360910459" y="-185.0" type="line"/>
      <point x="896.6640275523152" y="690.0" type="line"/>
      <point x="731.6640275523152" y="690.0" type="line"/>
    </contour>
    <contour>
      <point x="64.63687795070464" y="210.0" type="line"/>
      <point x="254.63687795070464" y="210.0" type="line"/>
      <point x="284.39479658450773" y="350.0" type="line"/>
      <point x="94.39479658450774" y="350.0" type="line"/>
    </contour>
  </outline>
</glyph>
<glyph name="greaterequal" format="1">
  <advance width="660"/>
  <unicode hex="2265"/>
  <outline>
    <contour>
      <point x="627.2548644326968" y="307.0" type="line"/>
      <point x="646.8100681063388" y="399.0" type="line"/>
      <point x="536.8100681063388" y="399.0" type="line"/>
      <point x="188.65576941941714" y="323.0" type="line"/>
      <point x="158.04762453893397" y="179.0" type="line"/>
    </contour>
    <contour>
      <point x="639.158031886218" y="363.0" type="line"/>
      <point x="657.4378961898399" y="449.0" type="line"/>
      <point x="242.64513608360278" y="577.0" type="line"/>
      <point x="212.88721744979966" y="437.0" type="line"/>
      <point x="529.158031886218" y="363.0" type="line"/>
    </contour>
    <contour>
      <point x="574.7533937002013" y="60.0" type="line"/>
      <point x="603.2359729639843" y="194.0" type="line"/>
      <point x="161.2359729639843" y="194.0" type="line"/>
      <point x="132.75339370020131" y="60.0" type="line"/>
    </contour>
  </outline>
</glyph>
<glyph name="I.alt" format="1">
  <advance width="330"/>
  <outline>
    <contour>
      <point x="85.0" y="0.0" type="line"/>
      <point x="245.0" y="0.0" type="line"/>
      <point x="391.66402755231525" y="690.0" type="line"/>
      <point x="231.66402755231528" y="690.0" type="line"/>
    </contour>
    <contour>
      <point x="311.66402755231525" y="690.0" type="move" name="top"/>
    </contour>
    <contour>
      <point x="165.0" y="0.0" type="move" name="bottom"/>
    </contour>
    <contour>
      <point x="85.0" y="0.0" type="move" name="ogonek"/>
    </contour>
  </outline>
</glyph>
<glyph name="J.alt" format="1">
  <advance width="569"/>
  <outline>
    <contour>
      <point x="30.729185563581638" y="74.0" type="line"/>
      <point x="72.46368779507047" y="21.0"/>
      <point x="134.44932125995973" y="-12.0"/>
      <point x="220.44932125995973" y="-12.0" type="curve"/>
      <point x="369.44932125995973" y="-12.0"/>
      <point x="511.0045249336018" y="80.0"/>
      <point x="546.0763576091554" y="245.0" type="curve" smooth="yes"/>
      <point x="640.6640275523152" y="690.0" type="line"/>
      <point x="480.66402755231525" y="690.0" type="line"/>
      <point x="390.32748884255585" y="265.0" type="line" smooth="yes"/>
      <point x="371.6225114155939" y="177.0"/>
      <point x="318.8449095787729" y="131.0"/>
      <point x="245.8449095787729" y="131.0" type="curve"/>
      <point x="200.8449095787729" y="131.0"/>
      <point x="166.7337104971834" y="154.0"/>
      <point x="150.5355204706241" y="186.0" type="curve"/>
    </contour>
    <contour>
      <point x="562.6640275523152" y="690.0" type="move" name="top"/>
    </contour>
  </outline>
</glyph>
<glyph name="a.alt" format="1">
  <advance width="562"/>
  <outline>
    <contour>
      <point x="63.332805510463054" y="138.0" type="curve" smooth="yes"/>
      <point x="44.20271496016106" y="48.0"/>
      <point x="100.44932125995973" y="-12.0"/>
      <point x="186.44932125995973" y="-12.0" type="curve" smooth="yes"/>
      <point x="247.44932125995973" y="-12.0"/>
      <point x="314.8260181100604" y="18.0"/>
      <point x="366.6664027552315" y="69.0" type="curve"/>
      <point x="387.28438923722365" y="166.0" type="line"/>
      <point x="342.48257926378295" y="134.0"/>
      <point x="294.2314480303825" y="114.0"/>
      <point x="252.23144803038252" y="114.0" type="curve" smooth="yes"/>
      <point x="222.23144803038252" y="114.0"/>
      <point x="207.05746614044293" y="132.0"/>
      <point x="212.5839367438635" y="158.0" type="curve" smooth="yes"/>
      <point x="218.11040734728408" y="184.0"/>
      <point x="245.63687795070464" y="210.0"/>
      <point x="336.9750001290749" y="221.0" type="curve" smooth="yes"/>
      <point x="421.1005657457751" y="231.0" type="line"/>
      <point x="431.742760364387" y="314.0" type="line"/>
      <point x="339.31764724104687" y="312.0" type="line" smooth="yes"/>
      <point x="171.46742099436682" y="308.0"/>
      <point x="83.95079199245521" y="235.0"/>
    </contour>
    <contour>
      <point x="156.7903849033209" y="493.0" type="curve"/>
      <point x="172.0710409412482" y="372.0" type="line"/>
      <point x="214.81638253027188" y="391.0"/>
      <point x="267.25082101019353" y="405.0"/>
      <point x="322.08540747635897" y="405.0" type="curve" smooth="yes"/>
      <point x="391.23856062951216" y="405.0"/>
      <point x="417.1338237495983" y="377.0"/>
      <point x="404.59298661106703" y="318.0" type="curve" smooth="yes"/>
      <point x="365.0574661404429" y="132.0" type="line"/>
      <point x="363.9803167969821" y="94.0" type="line"/>
      <point x="354.8260181100604" y="18.0"/>
      <point x="400.44932125995973" y="-12.0"/>
      <point x="461.44932125995973" y="-12.0" type="curve" smooth="yes"/>
      <point x="483.44932125995973" y="-12.0"/>
      <point x="508.51210406830984" y="-7.0"/>
      <point x="528.0" y="0.0" type="curve"/>
      <point x="553.7193439620727" y="121.0" type="line"/>
      <point x="547.2942308387327" y="119.0"/>
      <point x="541.0816742770626" y="118.0"/>
      <point x="535.0816742770626" y="118.0" type="curve" smooth="yes"/>
      <point x="520.0816742770626" y="118.0"/>
      <point x="513.7821267704228" y="126.0"/>
      <point x="518.2458145654932" y="147.0" type="curve"/>
      <point x="556.2934391044272" y="326.0" type="line" smooth="yes"/>
      <point x="585.6262446148903" y="464.0"/>
      <point x="508.14287361680186" y="537.0"/>
      <point x="373.14287361680186" y="537.0" type="curve" smooth="yes"/>
      <point x="292.14287361680186" y="537.0"/>
      <point x="213.12918582173143" y="516.0"/>
    </contour>
    <contour>
      <point x="375.5921948767616" y="525.0" type="move" name="top"/>
    </contour>
    <contour>
      <point x="264.0" y="0.0" type="move" name="bottom"/>
    </contour>
    <contour>
      <point x="408.0" y="0.0" type="move" name="ogonek"/>
    </contour>
  </outline>
</glyph>
